<svg width="24" height="24" viewBox="0 0 24 24" fill="none" xmlns="http://www.w3.org/2000/svg">
<g clip-path="url(#clip0_3529_41034)">
<g clip-path="url(#clip1_3529_41034)">
<path d="M14.25 21.4875C14.25 21.45 14.25 21.4125 14.25 21.375C14.25 19.8141 14.7516 18.3703 15.6047 17.1937L18.0516 19.6406C16.95 20.5125 15.6609 21.15 14.25 21.4875ZM12.0094 21.75C12.0047 21.75 12.0047 21.75 12 21.75C9.7125 21.75 7.60781 20.9625 5.94844 19.6453L12 13.5891L13.9969 15.5859C12.7453 17.1844 12 19.1906 12 21.375C12 21.5016 12.0047 21.6234 12.0094 21.75ZM15.5906 13.9969L13.5891 12L19.6453 5.94844C20.9625 7.60781 21.75 9.7125 21.75 12C21.75 12.0047 21.75 12.0047 21.75 12.0094C21.6234 12.0047 21.5016 12 21.375 12C19.1906 12 17.1844 12.7453 15.5906 13.9969ZM21.4875 14.25C21.1547 15.6609 20.5125 16.9547 19.6406 18.0516L17.1937 15.6047C18.3656 14.7516 19.8141 14.25 21.375 14.25C21.4125 14.25 21.45 14.25 21.4875 14.25ZM12 10.4109L10.0031 8.41406C11.2547 6.81563 12 4.80937 12 2.625C12 2.49844 11.9953 2.37656 11.9906 2.25C11.9953 2.25 11.9953 2.25 12 2.25C14.2875 2.25 16.3922 3.0375 18.0516 4.35469L12 10.4109ZM8.39531 6.80625L5.94844 4.35469C7.05 3.48281 8.33906 2.84531 9.75 2.50781C9.75 2.54531 9.75 2.58281 9.75 2.62031C9.75 4.18125 9.24844 5.625 8.39531 6.80156V6.80625ZM6.80625 8.39531C5.62969 9.24844 4.18594 9.75 2.625 9.75C2.5875 9.75 2.55 9.75 2.5125 9.75C2.84531 8.33906 3.4875 7.04531 4.35938 5.94844L6.80625 8.39531ZM2.25 11.9906C2.37656 11.9953 2.49844 12 2.625 12C4.80937 12 6.81562 11.2547 8.40937 10.0031L10.4109 12L4.35469 18.0516C3.0375 16.3922 2.25 14.2875 2.25 12C2.25 11.9953 2.25 11.9953 2.25 11.9906ZM12 24C15.1826 24 18.2348 22.7357 20.4853 20.4853C22.7357 18.2348 24 15.1826 24 12C24 8.8174 22.7357 5.76516 20.4853 3.51472C18.2348 1.26428 15.1826 0 12 0C8.8174 0 5.76516 1.26428 3.51472 3.51472C1.26428 5.76516 0 8.8174 0 12C0 15.1826 1.26428 18.2348 3.51472 20.4853C5.76516 22.7357 8.8174 24 12 24Z" fill="#20363D"/>
</g>
</g>
<defs>
<clipPath id="clip0_3529_41034">
<rect width="24" height="24" fill="white"/>
</clipPath>
<clipPath id="clip1_3529_41034">
<rect width="24" height="24" fill="white"/>
</clipPath>
</defs>
</svg>
