<svg width="24" height="24" viewBox="0 0 24 24" fill="none" xmlns="http://www.w3.org/2000/svg">
<g clip-path="url(#clip0_3529_41262)">
<path d="M8.78571 2.03125C8.78571 1.45977 8.30804 1 7.71429 1C7.12054 1 6.64286 1.45977 6.64286 2.03125V3.75H4.85714C3.28125 3.75 2 4.9832 2 6.5V7.1875V9.25V20.25C2 21.7668 3.28125 23 4.85714 23H19.1429C20.7188 23 22 21.7668 22 20.25V9.25V7.1875V6.5C22 4.9832 20.7188 3.75 19.1429 3.75H17.3571V2.03125C17.3571 1.45977 16.8795 1 16.2857 1C15.692 1 15.2143 1.45977 15.2143 2.03125V3.75H8.78571V2.03125ZM4.14286 9.25H19.8571V20.25C19.8571 20.6281 19.5357 20.9375 19.1429 20.9375H4.85714C4.46429 20.9375 4.14286 20.6281 4.14286 20.25V9.25Z" fill="#20363D"/>
</g>
<defs>
<clipPath id="clip0_3529_41262">
<rect width="24" height="24" fill="white"/>
</clipPath>
</defs>
</svg>
