<svg width="24" height="24" viewBox="0 0 24 24" fill="none" xmlns="http://www.w3.org/2000/svg">
<g clip-path="url(#clip0_57_23714)">
<path d="M5.88889 2C6.39687 2 6.80556 2.41797 6.80556 2.9375V4.5H12.3056V2.9375C12.3056 2.41797 12.7142 2 13.2222 2C13.7302 2 14.1389 2.41797 14.1389 2.9375V4.5H15.6667C17.0149 4.5 18.1111 5.62109 18.1111 7V7.625V9.5H17.5H16.2778H12H2.83333V19.5C2.83333 19.8438 3.10833 20.125 3.44444 20.125H11.8663C12.3361 20.8594 12.9358 21.4961 13.6347 22H3.44444C2.09618 22 1 20.8789 1 19.5V9.5V7.625V7C1 5.62109 2.09618 4.5 3.44444 4.5H4.97222V2.9375C4.97222 2.41797 5.3809 2 5.88889 2ZM12 16.375C12 14.8832 12.5795 13.4524 13.6109 12.3975C14.6424 11.3426 16.0413 10.75 17.5 10.75C18.9587 10.75 20.3576 11.3426 21.3891 12.3975C22.4205 13.4524 23 14.8832 23 16.375C23 17.8668 22.4205 19.2976 21.3891 20.3525C20.3576 21.4074 18.9587 22 17.5 22C16.0413 22 14.6424 21.4074 13.6109 20.3525C12.5795 19.2976 12 17.8668 12 16.375ZM17.5 13.25C17.1639 13.25 16.8889 13.5312 16.8889 13.875V16.375C16.8889 16.7188 17.1639 17 17.5 17H19.3333C19.6694 17 19.9444 16.7188 19.9444 16.375C19.9444 16.0312 19.6694 15.75 19.3333 15.75H18.1111V13.875C18.1111 13.5312 17.8361 13.25 17.5 13.25Z" fill="#20363D"/>
</g>
<defs>
<clipPath id="clip0_57_23714">
<rect width="24" height="24" fill="white"/>
</clipPath>
</defs>
</svg>
