<svg width="24" height="24" viewBox="0 0 24 24" fill="none" xmlns="http://www.w3.org/2000/svg">
<g clip-path="url(#clip0_57_24505)">
<path d="M0 3.45469C0 2.37656 0.876563 1.5 1.95469 1.5H22.0453C23.1234 1.5 24 2.37656 24 3.45469C24 3.90469 23.8453 4.34063 23.5594 4.6875L15.75 14.2734V20.9859C15.75 21.8203 15.0703 22.5 14.2359 22.5C13.8938 22.5 13.5609 22.3828 13.2938 22.1719L8.95781 18.7313C8.50781 18.375 8.25 17.8359 8.25 17.2641V14.2734L0.440625 4.6875C0.154687 4.34063 0 3.90469 0 3.45469ZM2.57812 3.75L10.2469 13.1625C10.4109 13.3641 10.5 13.6125 10.5 13.875V17.0812L13.5 19.4625V13.875C13.5 13.6172 13.5891 13.3641 13.7531 13.1625L21.4219 3.75H2.57812Z" fill="#20363D"/>
</g>
<defs>
<clipPath id="clip0_57_24505">
<rect width="24" height="24" fill="white"/>
</clipPath>
</defs>
</svg>
