<svg width="24" height="24" viewBox="0 0 24 24" fill="none" xmlns="http://www.w3.org/2000/svg">
<g clip-path="url(#clip0_57_24615)">
<g clip-path="url(#clip1_57_24615)">
<path d="M11.9998 0C12.7966 0 13.5748 0.0796875 14.3341 0.225C14.7045 0.295313 15.356 0.510937 15.7123 1.16719C15.806 1.34062 15.881 1.52344 15.9279 1.72031L16.3638 3.525C16.4295 3.79687 16.8888 4.06406 17.156 3.98438L18.9373 3.45938C19.1248 3.40313 19.317 3.375 19.5091 3.37031C20.2638 3.34688 20.7748 3.81094 21.0232 4.09219C22.0591 5.26875 22.856 6.65156 23.3623 8.1375C23.4841 8.49375 23.6248 9.15938 23.2357 9.79688C23.1326 9.96562 23.006 10.125 22.8607 10.2656L21.5154 11.5453C21.3185 11.7328 21.3185 12.2719 21.5154 12.4594L22.8607 13.7391C23.006 13.8797 23.1326 14.0391 23.2357 14.2078C23.6201 14.8453 23.4795 15.5109 23.3623 15.8672C22.856 17.3531 22.0591 18.7312 21.0232 19.9125C20.7748 20.1937 20.2591 20.6578 19.5091 20.6344C19.317 20.6297 19.1248 20.5969 18.9373 20.5453L17.156 20.0156C16.8888 19.9359 16.4295 20.2031 16.3638 20.475L15.9279 22.2797C15.881 22.4766 15.806 22.6641 15.7123 22.8328C15.3513 23.4891 14.6998 23.7 14.3341 23.775C13.5748 23.9203 12.7966 24 11.9998 24C11.2029 24 10.4248 23.9203 9.6654 23.775C9.29508 23.7047 8.64352 23.4891 8.28727 22.8328C8.19352 22.6594 8.11852 22.4766 8.07165 22.2797L7.63571 20.475C7.57008 20.2031 7.11071 19.9359 6.84352 20.0156L5.06227 20.5406C4.87477 20.5969 4.68258 20.625 4.4904 20.6297C3.73571 20.6531 3.22477 20.1891 2.97633 19.9078C1.94508 18.7313 1.14352 17.3484 0.637272 15.8625C0.515397 15.5062 0.374772 14.8406 0.763834 14.2031C0.866959 14.0344 0.993522 13.875 1.13883 13.7344L2.48415 12.4547C2.68102 12.2672 2.68102 11.7281 2.48415 11.5406L1.13415 10.2609C0.988834 10.1203 0.862272 9.96094 0.759147 9.79219C0.374772 9.15469 0.515397 8.48906 0.637272 8.1375C1.14352 6.65156 1.9404 5.27344 2.97633 4.09219C3.22477 3.81094 3.7404 3.34688 4.4904 3.37031C4.68258 3.375 4.87477 3.40781 5.06227 3.45938L6.84352 3.98438C7.11071 4.06406 7.57008 3.79687 7.63571 3.525L8.07165 1.72031C8.11852 1.52344 8.19352 1.33594 8.28727 1.16719C8.64821 0.510937 9.29977 0.3 9.6654 0.225C10.4248 0.0796875 11.2029 0 11.9998 0ZM10.2232 2.40938L9.82477 4.05469C9.45915 5.56875 7.70133 6.58125 6.20602 6.14531L4.58883 5.66719C3.8154 6.57188 3.20602 7.62188 2.80758 8.74688L4.03571 9.91406C5.16071 10.9828 5.16071 13.0172 4.03571 14.0859L2.80758 15.2531C3.20602 16.3781 3.8154 17.4281 4.58883 18.3328L6.21071 17.8547C7.70133 17.4141 9.46383 18.4312 9.82946 19.9453L10.2279 21.5906C11.381 21.8016 12.6326 21.8016 13.7857 21.5906L14.1841 19.9453C14.5498 18.4312 16.3076 17.4187 17.8029 17.8547L19.4248 18.3328C20.1982 17.4281 20.8076 16.3781 21.206 15.2531L19.9779 14.0859C18.8529 13.0172 18.8529 10.9828 19.9779 9.91406L21.206 8.74688C20.8076 7.62188 20.1982 6.57188 19.4248 5.66719L17.8029 6.14531C16.3123 6.58594 14.5498 5.56875 14.1841 4.05469L13.7857 2.40938C12.6326 2.19844 11.381 2.19844 10.2279 2.40938H10.2232ZM9.74977 12C9.74977 12.5967 9.98682 13.169 10.4088 13.591C10.8307 14.0129 11.403 14.25 11.9998 14.25C12.5965 14.25 13.1688 14.0129 13.5908 13.591C14.0127 13.169 14.2498 12.5967 14.2498 12C14.2498 11.4033 14.0127 10.831 13.5908 10.409C13.1688 9.98705 12.5965 9.75 11.9998 9.75C11.403 9.75 10.8307 9.98705 10.4088 10.409C9.98682 10.831 9.74977 11.4033 9.74977 12ZM11.9998 16.5C10.8063 16.5 9.66171 16.0259 8.81779 15.182C7.97388 14.3381 7.49977 13.1935 7.49977 12C7.49977 10.8065 7.97388 9.66193 8.81779 8.81802C9.66171 7.97411 10.8063 7.5 11.9998 7.5C13.1932 7.5 14.3378 7.97411 15.1818 8.81802C16.0257 9.66193 16.4998 10.8065 16.4998 12C16.4998 13.1935 16.0257 14.3381 15.1818 15.182C14.3378 16.0259 13.1932 16.5 11.9998 16.5Z" fill="#20363D"/>
</g>
</g>
<defs>
<clipPath id="clip0_57_24615">
<rect width="24" height="24" fill="white"/>
</clipPath>
<clipPath id="clip1_57_24615">
<rect width="24" height="24" fill="white"/>
</clipPath>
</defs>
</svg>
