<svg width="24" height="24" viewBox="0 0 24 24" fill="none" xmlns="http://www.w3.org/2000/svg">
<g clip-path="url(#clip0_3529_10067)">
<path d="M2.23125 14.0812L10.7016 21.9891C11.0531 22.3172 11.5172 22.5 12 22.5C12.4828 22.5 12.9469 22.3172 13.2984 21.9891L21.7687 14.0812C23.1938 12.7547 24 10.8937 24 8.94844V8.67656C24 5.4 21.6328 2.60625 18.4031 2.06719C16.2656 1.71094 14.0906 2.40937 12.5625 3.9375L12 4.5L11.4375 3.9375C9.90938 2.40937 7.73438 1.71094 5.59688 2.06719C2.36719 2.60625 0 5.4 0 8.67656V8.94844C0 10.8937 0.80625 12.7547 2.23125 14.0812Z" fill="#20363D"/>
</g>
<defs>
<clipPath id="clip0_3529_10067">
<rect width="24" height="24" fill="white"/>
</clipPath>
</defs>
</svg>
