<svg width="19" height="20" viewBox="0 0 19 20" fill="none" xmlns="http://www.w3.org/2000/svg">
<path d="M9.50004 18.1214C9.31532 18.1214 9.15699 18.0686 9.02504 17.9631C8.8931 17.8575 8.79414 17.719 8.72817 17.5475C8.47747 16.8086 8.16081 16.1159 7.77817 15.4693C7.40872 14.8228 6.88754 14.0641 6.21462 13.1933C5.54171 12.3225 4.99414 11.4912 4.57192 10.6995C4.16289 9.90788 3.95837 8.95128 3.95837 7.82975C3.95837 6.286 4.49275 4.97975 5.5615 3.911C6.64344 2.82906 7.95629 2.28809 9.50004 2.28809C11.0438 2.28809 12.35 2.82906 13.4188 3.911C14.5007 4.97975 15.0417 6.286 15.0417 7.82975C15.0417 9.03045 14.8108 10.0332 14.349 10.8381C13.9004 11.6298 13.3792 12.4148 12.7855 13.1933C12.073 14.1433 11.532 14.935 11.1625 15.5683C10.8063 16.1884 10.5094 16.8482 10.2719 17.5475C10.2059 17.7322 10.1004 17.8773 9.95525 17.9829C9.82331 18.0752 9.67157 18.1214 9.50004 18.1214ZM9.50004 15.2912C9.72435 14.8426 9.97504 14.4006 10.2521 13.9652C10.5424 13.5298 10.9646 12.9492 11.5188 12.2235C12.0862 11.4846 12.548 10.8051 12.9042 10.185C13.2737 9.55163 13.4584 8.76656 13.4584 7.82975C13.4584 6.73461 13.0691 5.8044 12.2907 5.03913C11.5254 4.26066 10.5952 3.87142 9.50004 3.87142C8.4049 3.87142 7.4681 4.26066 6.68962 5.03913C5.92435 5.8044 5.54171 6.73461 5.54171 7.82975C5.54171 8.76656 5.71983 9.55163 6.07608 10.185C6.44553 10.8051 6.91393 11.4846 7.48129 12.2235C8.03546 12.9492 8.45108 13.5298 8.72817 13.9652C9.01844 14.4006 9.27574 14.8426 9.50004 15.2912ZM9.50004 9.80892C10.0542 9.80892 10.5226 9.6176 10.9052 9.23496C11.2879 8.85232 11.4792 8.38392 11.4792 7.82975C11.4792 7.27558 11.2879 6.80718 10.9052 6.42454C10.5226 6.0419 10.0542 5.85059 9.50004 5.85059C8.94587 5.85059 8.47747 6.0419 8.09483 6.42454C7.71219 6.80718 7.52087 7.27558 7.52087 7.82975C7.52087 8.38392 7.71219 8.85232 8.09483 9.23496C8.47747 9.6176 8.94587 9.80892 9.50004 9.80892Z" fill="#79747E"/>
</svg>
