<svg xmlns="http://www.w3.org/2000/svg" viewBox="0 0 234.27 294.67" preserveAspectRatio="xMidYMid meet">
  <defs>
    <clipPath id="a"><path d="M21.56 170.09v84.04h94.33v-84.04H21.56zm25.56 50.46c-8.9-5.08-16.85-11.39-23.57-18.77-.26-1.15-.52-2.33-.77-3.57-.57-2.73.03-5.36 1.69-7.41 1.79-2.21 4.71-3.58 7.61-3.58 3.95 0 6.92 2.46 7.75 6.42 1.72 8.2 3.86 17.69 7.39 26.51l-.1.41z"/></clipPath>
    <clipPath id="b"><path d="M121.94 170.53v77.92h75.15v-77.92h-75.15zm73.94 20.53c-.08.4-.17.8-.26 1.2-6.53 9.48-14.82 17.61-24.47 24.16l-.12-.46c3.54-9.08 5.59-18.88 7.57-28.35l.24-1.13c.83-3.96 3.8-6.42 7.74-6.42 2.9 0 5.82 1.37 7.62 3.59 1.67 2.05 2.27 4.68 1.7 7.41z"/></clipPath>
  </defs>
  <g fill-rule="evenodd">
    <path fill="#DEB40D" d="M145.73 25.11s4.43-1.29 1.47 8.11c-2.96 9.4-19.17 27.21-35.15 17.82l9.51-17.54 24.17-8.4z"/>
    
    <path fill="#A62523" d="M65.36 161c13.05 37.8 12.56 78.27 5.6 117.26-.81 4.51 1.21 7.96 5.47 9.63 5.44 2.13 10.87 4.26 16.31 6.39 3.94 1.54 8.59-1.69 9.63-5.47 1.22-4.44-1.51-8.08-5.47-9.63-5.44-2.13-10.87-4.26-16.31-6.39 1.82 3.21 3.64 6.42 5.47 9.63 7.44-41.69 8.38-85.1-5.6-125.58-3.27-9.46-18.39-5.4-15.09 4.16zM118.34 161c13.05 37.8 12.56 78.27 5.6 117.26-.81 4.51 1.21 7.96 5.47 9.63 5.44 2.13 10.87 4.26 16.31 6.39 3.94 1.54 8.59-1.69 9.63-5.47 1.22-4.44-1.51-8.08-5.47-9.63-5.44-2.13-10.87-4.26-16.31-6.39 1.82 3.21 3.64 6.42 5.47 9.63 7.44-41.69 8.38-85.1-5.6-125.58-3.27-9.46-18.39-5.4-15.09 4.16z"/>
    
    <path fill="#EB5A28" d="M211.62 138.97c0 58.44-47.37 96.42-105.81 96.42S0 197.41 0 138.97 47.37 33.16 105.81 33.16s105.81 47.37 105.81 105.81z"/>
    
    <g fill="#A62523">
      <path d="M98.26 177.39c-.4 1.06-.82 2.11-1.24 3.16-.49 1.21-.98 2.41-1.48 3.61.96-2.31-.02.05-.25.57-.39.91-.79 1.81-1.19 2.72-3.7 8.35-7.74 16.58-12.36 24.46-5.14 8.78-8.87 14.23-16.06 20.94-1.62 1.51.64-.27-1.15.91-.68.45-1.37.88-2.07 1.31-.75.45-2.44 1.09-.67.44-.92.34-1.84.56-2.77.83-1.23.36.51-.08.7-.08-.17 0-1.29.18-1.38.05-.02-.03-.96-.06-.92-.05 2.09.07 1.12.2.47 0-.93-.27-2.19-.92-.64-.1-.55-.29-3.12-2.04-1.57-.79-4.05-3.25-6.2-7.27-8.63-12.95-3.9-9.09-6.18-18.93-8.21-28.58-2.07-9.85-17.16-5.68-15.09 4.16 4.1 19.5 16.01 66.74 45.92 50.95 9.07-4.79 15.76-13.84 21.27-22.2 5.71-8.65 10.49-17.92 14.83-27.33 2.7-5.87 5.3-11.82 7.58-17.88 3.55-9.44-11.58-13.52-15.09-4.16z" clip-path="url(#a)"/>
      <path d="M124.21 182.26c3.35 13.43 7.87 26.76 13.66 39.33 3.66 7.94 8.21 16.41 15.48 21.61 7.53 5.39 16.67 3.81 22.87-2.8 4.64-4.94 7.44-11.36 9.87-17.58 4.03-10.3 6.56-21.17 8.83-31.98 2.06-9.83-13.03-14.03-15.09-4.16-2.92 13.94-5.9 28.93-13.54 41.18-1.14 1.82.12.14-.94 1.25-.57.61-1.14 1.19-1.76 1.74 1.19-1.05.3-.44-.37.13-.54.47 1.4-.84-.46.09 1.56-.78 1.09-.44-.03-.14-.82.21 2.04.51.75.06-.14-.05-.67-.25-.75-.23.88-.18 1.47.73 0-.09-.25-.14-.48-.33-.74-.47-1.31-.71 1.16 1.1.12.1-1.13-1.08-2.19-2.15-3.21-3.34-.7-.81.54.9-.5-.7-.56-.85-1.14-1.68-1.68-2.54-2.14-3.41-3.95-7.03-5.62-10.69-1.56-3.44-2.58-6-4.25-10.59-1.33-3.67-2.57-7.37-3.74-11.09-1.37-4.39-2.68-8.81-3.8-13.27-2.44-9.77-17.54-5.63-15.09 4.16z" clip-path="url(#b)"/>
    </g>

    <path fill="#231F20" d="M126.62 164.2c-12.8 0-23.21-9.08-23.21-20.23 0-4.64 1.88-6.9 5.75-6.9 1.86 0 4.05.5 6.58 1.09 3.25.75 6.94 1.6 10.88 1.6s7.62-.85 10.88-1.6c2.53-.58 4.72-1.09 6.58-1.09 3.87 0 5.75 2.26 5.75 6.9 0 11.15-10.41 20.23-23.21 20.23z"/>
    <path fill="#D95F81" d="M114.08 154.76c3.02 3.12 7.53 5.1 12.57 5.1s9.7-2.05 12.72-5.26c-3.08-3.2-7.74-5.2-12.91-5.1-4.99.1-9.42 2.13-12.38 5.26z"/>
    
    <g fill="#EF85B0">
      <ellipse cx="48.59" cy="149.18" rx="14.05" ry="28.09" transform="rotate(-71.65 48.59 149.18)"/>
      <ellipse cx="207.23" cy="149.18" rx="28.09" ry="14.05" transform="rotate(-18.35 207.23 149.18)"/>
    </g>
    
    <g fill="#231F20">
      <path d="M42.43 152.73c-2.33-4.5-4.67-8.99-7-13.49-.67-1.29-2.59-1.78-3.8-1-1.32.85-1.72 2.42-1 3.8 2.33 4.5 4.67 8.99 7 13.49.67 1.29 2.59 1.78 3.8 1 1.32-.85 1.72-2.42 1-3.8zM51.64 152.73c-2.33-4.5-4.67-8.99-7-13.49-.67-1.29-2.59-1.78-3.8-1-1.32.85-1.72 2.42-1 3.8 2.33 4.5 4.67 8.99 7 13.49.67 1.29 2.59 1.78 3.8 1 1.32-.85 1.72-2.42 1-3.8zM71.28 149.5s-48.02-20.17-39.38-41.3c5.25-12.84 15.12-9.36 22.05-4.66 4.14 2.81 9.76 1.8 12.64-2.29 4.95-7.03 13.35-14.33 23.9-5.54 17.29 14.41-19.21 53.79-19.21 53.79z"/>
    </g>
    
    <path fill="#FFCE06" d="M145.73 25.11S62.62 104.1 7.35 65.9l60.27-30.79 78.11-10zM40.78 51.29s-2.94-18.09-2.94-18.1c-2.43-14.95 14.45-28.44 31.42-32.11 15.24-3.3 32.94.83 37.31 13.41 0 0 5.65 16.26 5.65 16.26l-71.44 20.54z"/>
    <path fill="#EF85B0" d="M55.61 29.6c-2.38-.76-5.08.06-7.27 1.47-3.03 1.95-4.9 4.74-6.56 7.5-1.03 1.71-1.99 3.48-2.63 5.28-.13.35-.24.71-.34 1.08-.93-.32-1.9-.57-2.88-.79-2.53-.56-5.19-1.05-7.95-.81-2.45.21-5.05 1.03-6.92 2.62-1.43 1.21-2.63 2.96-2.24 4.55.85 3.46 7.21 3.39 10.73 2.97 2.57-.3 5.15-1.03 7.55-2.08.2-.09.42-.18.65-.29-.64 1.65-.73 3.84 1.64 5.86 3.45 2.95 4.06 8.04 2.8 10.62.82-.65 2.17-1.86 2.26-2.81 0 0 .97.4 1.47 1.84.41-1.88.55-4.73-.89-7.76-2.38-5.01-4.78-5.17-5.41-8.02.58.04 1.2-.03 1.81-.24.04-.01.08-.04.12-.05.85.31 2.33.56 4.62 1.9 3.86 2.27 3.24 5.3 5.59 7.91 2.34 2.61 5.49 1.87 5.49 1.87-1.4-.16-2.56-1.18-2.56-1.18 2.59-.54 3.36-1.17 3.36-1.17-2.48.08-5.42-.9-6.97-5.86-1.01-3.24-4.53-4.62-6.87-5.19.24-.05.47-.11.69-.16 2.59-.64 5.04-1.79 7.19-3.27 3.91-2.71 7.99-7.33 7.36-11.46-.3-1.93-1.7-3.64-3.84-4.33zM35.59 50.41c-1.68.58-3.4.94-5.13 1.11-2.76.27-7.9.26-8.68-2.37-.31-1.02.32-2.38 1.51-3.02 1.35-.72 3.16-.88 4.61-.84 1.97.06 3.93.43 5.76.84 1.09.25 2.18.54 3.19.94-.25.61-.29 1.27-.08 1.89.1.3.27.56.47.79-.54.24-1.09.47-1.65.66zM52.93 42.79c-1.51 1.5-3.41 2.76-5.54 3.51-.85.3-2.07.7-3.19.83 0-.24-.04-.48-.13-.72-.35-1.02-1.33-1.68-2.51-1.86.06-.34.15-.67.25-.98.38-1.26.95-2.51 1.6-3.73 1.06-1.98 2.56-4.36 3.91-5.96.93-1.1 2.29-2.28 3.87-2.51 1.87-.28 3.55.75 4.44 1.91 2.22 2.9.02 6.8-2.71 9.51z"/>
    <path fill="#231F20" d="M70.34 72.4c-9.04-3.87-20.3-1.57-26.58 6.23-.94 1.17-1.14 2.79 0 3.93.97.97 2.99 1.18 3.93 0 2.45-3.05 5.57-5.01 9.27-5.96 3.44-.89 7.36-.77 10.57.6 1.38.59 2.98.41 3.8-1 .68-1.17.39-3.21-1-3.8zM185.49 72.4c9.04-3.87 20.3-1.57 26.58 6.23.94 1.17 1.14 2.79 0 3.93.97.97 2.99 1.18 3.93 0 2.45-3.05-5.57-5.01-9.27-5.96 3.44-.89 7.36-.77 10.57.6 1.38.59 2.98.41 3.8-1 .68-1.17.39-3.21-1-3.8z"/>
  </g>
</svg>