<svg xmlns="http://www.w3.org/2000/svg" viewBox="0 0 258.42 267.19" preserveAspectRatio="xMidYMid meet">
  <g fill-rule="evenodd">
    <g fill="#A62523">
      <path d="M164.9 148.53c3.56 11.53 6.68 24.01 14.89 33.25s21.12 11.52 31.35 3.8c9.42-7.1 14.82-18.77 17.94-29.87 4.38-15.57 4.63-31.96 4.85-48.02.14-10.08-15.52-10.08-15.65 0-.27 20.06.65 45.67-13.07 62.1-14.01 16.78-22.32-16.04-25.21-25.43-2.96-9.6-18.07-5.5-15.09 4.16zM170.6 251.96c-8.93-1.39-17.86-2.78-26.81-4.03 1.82 3.21 3.64 6.42 5.47 9.63.4-2.16.76-4.18 1.62-6.21-5.12-.69-10.25-1.39-15.37-2.08.06 1.52.08 1.72-.51 3.15.67-1.15 1.34-2.3 2.01-3.45l-.82.99c4.36 2.54 8.72 5.08 13.08 7.61 3.79-21.3 6.26-42.91 5.67-64.58-.56-20.58-4.59-41.53-11.17-61.01-3.21-9.49-18.33-5.42-15.09 4.16 6.16 18.22 10.09 37.59 10.62 56.85.56 20.28-1.56 40.47-5.11 60.42-1.22 6.87 7.56 14.22 13.08 7.61 2.95-3.53 4.08-7.15 3.91-11.75-.35-9.37-12.08-9.92-15.37-2.08-.85 2.03-1.22 4.05-1.62 6.21-.68 3.73 1 9 5.47 9.63 8.95 1.25 17.88 2.64 26.81 4.03 4.17.65 8.42-1.06 9.63-5.47 1.02-3.71-1.27-8.97-5.47-9.63zM108.38 251.96c-8.93-1.39-17.86-2.78-26.81-4.03 1.82 3.21 3.64 6.42 5.47 9.63.4-2.16.76-4.18 1.62-6.21-5.12-.69-10.25-1.39-15.37-2.08.06 1.52.08 1.72-.51 3.15.67-1.15 1.34-2.3 2.01-3.45l-.82.99c4.36 2.54 8.72 5.08 13.08 7.61 3.79-21.3 6.26-42.91 5.67-64.58-.56-20.58-4.59-41.53-11.17-61.01-3.21-9.49-18.33-5.42-15.09 4.16 6.16 18.22 10.09 37.59 10.62 56.85.56 20.28-1.56 40.47-5.11 60.42-1.22 6.87 7.56 14.22 13.08 7.61 2.95-3.53 4.08-7.15 3.91-11.75-.35-9.37-12.08-9.92-15.37-2.08-.85 2.03-1.22 4.05-1.62 6.21-.68 3.73 1 9 5.47 9.63 8.95 1.25 17.88 2.64 26.81 4.03 4.17.65 8.42-1.06 9.63-5.47 1.02-3.71-1.27-8.97-5.47-9.63zM22.92 150.58c1.37 12.12 1.95 25.26 8.41 35.99 6.85 11.38 19.48 15.38 31.35 9.11 10.79-5.7 18.31-17.29 23.2-28.1 6.2-13.73 9.35-28.36 12.32-43.06 1.99-9.83-13.09-14.04-15.09-4.16-4.05 19.99-7.87 43.62-23.45 58.28-5.71 5.37-11.44 6.27-15.49-1.17-4.35-7.99-4.6-18.06-5.6-26.9-.47-4.2-3.26-7.83-7.83-7.83-3.86 0-8.3 3.6-7.83 7.83z"/>
    </g>

    <circle fill="#EB5A28" cx="105.81" cy="105.81" r="105.81"/>

    <g fill="#231F20">
      <path d="M107.31 99.7c1.7-2.66 7.05-.88 9.98-.68 3.31.38 7.22.46 10.83.29 2.45-.1 4.75-.41 6.69-.7 4.08-.44 6.75-1.28 7.92 3.6.56 2.65.67 6.27.79 9.23.76 13.58-1.49 28.63-11.64 35.52-9.55 6.74-20.29-1.56-24.1-13.41-2.3-6.77-2.49-14.68-2.23-22.11.14-3.68.3-9.88 1.71-11.69l.04-.06z"/>
      <circle cx="57.91" cy="113.05" r="2.8"/>
      <circle cx="74.23" cy="114.43" r="2.8"/>
      <circle cx="63.66" cy="126.62" r="2.8"/>
      <circle cx="169.75" cy="113.05" r="2.8"/>
      <circle cx="153.43" cy="114.43" r="2.8"/>
      <circle cx="164.01" cy="126.62" r="2.8"/>
    </g>

    <g fill="#231F20" fill-rule="nonzero">
      <path d="M133.78 69.7c.26 17.27 8.79 35.24 25.44 42.16 15.51 6.45 32.38 0 42.02-13.15 10.93-14.92 11.98-36.12 3.5-52.4-7.54-14.48-23.18-24.08-39.67-20.62-20.05 4.21-31 24.91-31.29 44.02-.06 3.89 5.99 3.89 6.05 0 .21-14.45 6.9-29.73 20.6-36.12 13.61-6.35 28.65-.18 36.72 11.78 8.6 12.74 9.55 30.38 2.68 44.09-6.26 12.48-19.4 21.59-33.74 18.3-17.09-3.92-26-21.73-26.25-38.04-.06-3.89-6.11-3.9-6.05 0z"/>
      <path d="M34.12 69.7c.26 17.27 8.79 35.24 25.44 42.16 15.51 6.45 32.38 0 42.02-13.15 10.93-14.92 11.98-36.12 3.5-52.4-7.54-14.48-23.18-24.08-39.67-20.62-20.05 4.21-31 24.91-31.29 44.02-.06 3.89 5.99 3.89 6.05 0 .21-14.45 6.9-29.73 20.6-36.12 13.61-6.35 28.65-.18 36.72 11.78 8.6 12.74 9.55 30.38 2.68 44.09-6.26 12.48-19.4 21.59-33.74 18.3-17.09-3.92-26-21.73-26.25-38.04-.06-3.89-6.11-3.9-6.05 0z"/>
      <path d="M136.81 66.57h-29.11c-4.03 0-4.04 6.26 0 6.26h29.11c4.03 0 4.04-6.26 0-6.26z"/>
    </g>

    <g>
      <circle fill="#FFFCFD" cx="171.36" cy="73.73" r="27.38"/>
      <circle fill="#231F20" cx="171.36" cy="73.73" r="17.01"/>
      <circle fill="#FFFCFD" cx="73.14" cy="73.73" r="27.38"/>
      <circle fill="#231F20" cx="73.13" cy="73.73" r="17.01"/>
    </g>

    <polygon fill="#FFCE06" points="218.07 83.31 233.48 49.59 233.11 71.65 258.42 73.06 242.28 89.89 258.42 103.67 224.9 92.94 218.07 83.31"/>
  </g>
</svg>