<svg width="104" height="140" viewBox="0 0 104 140" fill="none" xmlns="http://www.w3.org/2000/svg">
<path d="M46.7332 33.3354C20.9644 33.3354 0 54.3349 0 80.1468C0 96.6755 8.59782 111.232 21.5521 119.565V126.37H17.1258C16.5381 126.37 15.9709 126.444 15.4284 126.584C15.1037 126.666 14.7873 126.773 14.4831 126.905C14.2818 126.991 14.0845 127.086 13.8954 127.193C13.3159 127.506 12.7858 127.901 12.3255 128.366C11.9391 128.749 11.598 129.181 11.3144 129.651C10.6897 130.684 10.3281 131.89 10.3281 133.183C10.3281 133.636 10.3733 134.088 10.4596 134.525C10.5007 134.743 10.5582 134.957 10.6199 135.167C10.6938 135.414 10.7843 135.653 10.887 135.887C10.9034 135.929 10.9199 135.966 10.9363 136.003C11.0391 136.233 11.1583 136.46 11.2857 136.678H11.2898C11.4583 136.966 11.6514 137.238 11.8652 137.497C12.0049 137.67 12.157 137.839 12.3172 137.999C12.3994 138.082 12.4816 138.16 12.5679 138.238C12.7364 138.39 12.9091 138.53 13.0858 138.662H13.0899C13.2707 138.798 13.4557 138.921 13.6406 139.037C14.1174 139.321 14.6229 139.547 15.1489 139.708C15.227 139.732 15.3051 139.753 15.3832 139.774C15.4366 139.79 15.49 139.802 15.5435 139.815C16.0572 139.938 16.5874 140 17.1299 140H28.3621C29.2992 140 30.1951 139.811 31.0089 139.465C31.8226 139.119 32.5542 138.617 33.1707 137.999C34.4036 136.764 35.168 135.06 35.168 133.183V125.505C38.6902 126.407 42.3685 126.909 46.1578 126.95H46.1783C46.0098 127.024 45.8454 127.102 45.6893 127.193C45.1098 127.506 44.5796 127.901 44.1193 128.366C43.733 128.749 43.3919 129.181 43.1083 129.651C42.4836 130.684 42.1219 131.89 42.1219 133.183C42.1219 133.636 42.1671 134.088 42.2534 134.525C42.2945 134.743 42.3521 134.957 42.4137 135.167C42.4877 135.414 42.5781 135.653 42.6809 135.887C42.6973 135.929 42.7137 135.966 42.7302 136.003C42.8329 136.233 42.9521 136.46 43.0795 136.678H43.0836C43.2521 136.966 43.4453 137.238 43.659 137.497C43.7987 137.67 43.9508 137.839 44.1111 137.999C44.1933 138.082 44.2755 138.16 44.3618 138.238C44.5303 138.39 44.7029 138.53 44.8796 138.662H44.8837C45.0646 138.798 45.2495 138.921 45.4345 139.037C45.9112 139.321 46.4167 139.547 46.9428 139.708C47.0209 139.732 47.099 139.753 47.177 139.774C47.2305 139.79 47.2839 139.802 47.3373 139.815C47.8511 139.938 48.3812 140 48.9237 140H60.156C61.093 140 61.989 139.811 62.8027 139.465C63.6165 139.119 64.348 138.617 64.9645 137.999C66.1975 136.764 66.9619 135.06 66.9619 133.183V122.339C82.6328 114.777 93.4705 98.7051 93.4705 80.1468C93.4705 54.3349 72.5061 33.3354 46.7373 33.3354H46.7332ZM65.7002 119.062C64.9645 119.425 64.2206 119.766 63.4603 120.087V133.183C63.4603 134.097 63.0863 134.924 62.4904 135.525C61.8903 136.126 61.0642 136.501 60.1519 136.501H48.9196C48.0113 136.501 47.1853 136.126 46.5852 135.525H46.5811C46.4332 135.373 46.2934 135.208 46.1783 135.035C45.8208 134.504 45.6112 133.866 45.6112 133.183C45.6112 132.269 45.9852 131.437 46.5852 130.84C47.1853 130.239 48.0113 129.869 48.9196 129.869H56.8393V122.261C55.6927 122.541 54.5255 122.772 53.3459 122.953C51.1883 123.286 48.9813 123.459 46.7332 123.459C42.7261 123.459 38.8464 122.911 35.1639 121.882C33.9762 121.553 32.809 121.174 31.6664 120.746V133.183C31.6664 134.097 31.2924 134.924 30.6965 135.525C30.0965 136.126 29.2704 136.501 28.358 136.501H17.1258C16.2175 136.501 15.3914 136.126 14.7914 135.525C14.6434 135.373 14.5037 135.208 14.3886 135.035C14.031 134.504 13.8214 133.866 13.8214 133.183C13.8214 132.269 14.1954 131.437 14.7955 130.84C15.3955 130.239 16.2216 129.869 17.1299 129.869H25.0496V117.605C24.6016 117.346 24.1577 117.078 23.7221 116.798C11.5775 109.125 3.49749 95.564 3.49749 80.1468C3.49749 56.2657 22.8919 36.8347 46.7373 36.8347C70.5827 36.8347 89.9771 56.2657 89.9771 80.1468C89.9771 97.2189 80.0682 112.014 65.7043 119.062H65.7002Z" fill="white"/>
<path d="M46.733 36.8347C22.8876 36.8347 3.49316 56.2657 3.49316 80.1469C3.49316 95.5641 11.5731 109.125 23.7178 116.798C24.1534 117.078 24.5973 117.346 25.0453 117.605V129.869H17.1256C16.2173 129.869 15.3912 130.239 14.7912 130.84C14.1911 131.437 13.8171 132.269 13.8171 133.183C13.8171 133.866 14.0267 134.504 14.3843 135.035C14.4994 135.208 14.6391 135.373 14.787 135.525C15.3871 136.126 16.2132 136.501 17.1214 136.501H28.3537C29.2661 136.501 30.0922 136.126 30.6922 135.525C31.2881 134.924 31.6621 134.097 31.6621 133.183V120.746C32.8047 121.174 33.9719 121.553 35.1596 121.882C38.842 122.912 42.7217 123.459 46.7289 123.459C48.9769 123.459 51.1839 123.286 53.3416 122.953C54.5211 122.772 55.6883 122.541 56.835 122.261V129.869H48.9153C48.007 129.869 47.1809 130.239 46.5809 130.84C45.9809 131.437 45.6069 132.269 45.6069 133.183C45.6069 133.866 45.8165 134.504 46.174 135.035C46.2891 135.208 46.4288 135.373 46.5768 135.525H46.5809C47.1809 136.126 48.007 136.501 48.9153 136.501H60.1475C61.0599 136.501 61.886 136.126 62.486 135.525C63.082 134.924 63.456 134.097 63.456 133.183V120.087C64.2163 119.766 64.9602 119.425 65.6958 119.062C80.0598 112.015 89.9687 97.219 89.9687 80.1469C89.9687 56.2657 70.5701 36.8347 46.7289 36.8347H46.733Z" fill="#A52523"/>
<path d="M46.7289 42.6763C67.3933 42.6763 84.1409 59.452 84.1409 80.1468C84.1409 100.842 67.3933 117.621 46.7289 117.621C29.9895 117.621 15.8187 106.609 11.043 91.4184C17.0763 95.5846 24.6302 97.3342 31.954 96.2391C32.1101 96.6302 32.254 97.0254 32.3937 97.4247C33.3883 100.286 37.9585 99.055 36.9515 96.165C35.9118 93.168 34.5226 90.3357 32.7225 87.7216C31.0046 85.231 26.9071 87.594 28.6414 90.1093C29.0154 90.6568 29.3771 91.2085 29.7182 91.7725C22.1602 92.4764 14.6021 89.4177 9.49771 83.7695C9.37852 82.5757 9.32098 81.3695 9.32098 80.1468C9.32098 59.452 26.0686 42.6763 46.7289 42.6763ZM56.2761 94.1849C68.2522 94.1849 77.9967 84.4241 77.9967 72.4279C77.9967 60.4317 68.2522 50.671 56.2761 50.671C44.3 50.671 34.5514 60.4317 34.5514 72.4279C34.5514 84.4241 44.2959 94.1849 56.2761 94.1849Z" fill="#F15924"/>
<path d="M56.2801 55.3435C46.8726 55.3435 39.216 63.0089 39.216 72.4321C39.216 81.8553 46.8726 89.5206 56.2801 89.5206C65.6876 89.5206 73.3401 81.8553 73.3401 72.4321C73.3401 63.0089 65.6876 55.3435 56.2801 55.3435ZM56.2801 84.8564C49.429 84.8564 43.8766 79.2947 43.8766 72.4321C43.8766 65.5695 49.429 60.0119 56.2801 60.0119C63.1312 60.0119 68.6795 65.5736 68.6795 72.4321C68.6795 79.2906 63.1271 84.8564 56.2801 84.8564Z" fill="white"/>
<path d="M69.7155 34.0765C69.4977 34.0435 69.2799 33.99 69.0662 33.9159C67.488 33.389 66.3824 31.9687 66.2632 30.3055L64.385 4.41538C64.2823 3.01157 64.907 1.64893 66.0372 0.80912C66.9332 0.142209 68.051 -0.121262 69.1319 0.0516405C69.4114 0.0969246 69.6909 0.171026 69.958 0.273944L88.1811 7.28886C89.4305 7.77052 90.3717 8.83264 90.6963 10.1335C91.021 11.4344 90.6922 12.8135 89.8127 13.8304L73.4678 32.7056C72.5267 33.7924 71.1047 34.2946 69.7196 34.0723L69.7155 34.0765Z" fill="white"/>
<path d="M70.3608 30.009L68.4826 4.1189L86.7057 11.1338L70.3608 30.009Z" fill="#FCBD1D"/>
<path d="M85.4646 38.1644C83.9645 37.9256 82.7028 36.8676 82.2137 35.402C81.6753 33.7842 82.189 32.0016 83.5042 30.9189L94.7529 21.6562C95.6694 20.9029 96.8571 20.5859 98.0079 20.7712C98.2257 20.8041 98.4435 20.8576 98.6531 20.9276C99.9929 21.3722 101.012 22.4755 101.349 23.8464L103.79 33.7142C104.103 34.9739 103.803 36.3077 102.981 37.3122C102.159 38.3167 100.914 38.8724 99.6189 38.8189L85.929 38.2138C85.7728 38.2055 85.6167 38.1891 85.4605 38.1644H85.4646Z" fill="white"/>
<path d="M86.1096 34.101L97.3624 24.8384L99.7996 34.7062L86.1096 34.101Z" fill="#FCBD1D"/>
</svg>
