<svg width="25" height="25" viewBox="0 0 25 25" fill="none" xmlns="http://www.w3.org/2000/svg">
<path d="M10.2748 1.82988C10.2748 1.82988 10.2686 1.82988 10.2654 1.82988C10.2592 1.82988 10.2561 1.82373 10.2498 1.82373C10.2529 1.8268 10.3061 1.85447 10.3092 1.84832C10.2998 1.84218 10.2873 1.8391 10.2779 1.83295C10.2779 1.83295 10.2779 1.83295 10.2748 1.83295V1.82988Z" fill="#69B42E"/>
<path d="M13.3629 0.0990948C12.9815 0.406522 12.694 0.873811 12.4752 1.29806C12.3002 1.64238 12.1626 2.00207 12.0564 2.36791C11.997 2.2726 11.9313 2.18038 11.8595 2.08815C11.575 1.73153 11.2031 1.43333 10.7936 1.22428C10.6905 1.17202 10.5811 1.12283 10.4717 1.08594C10.2717 1.0183 10.0435 1.16279 9.99035 1.3534C9.93409 1.55937 10.056 1.7469 10.2467 1.82069C10.2467 1.82069 10.2529 1.82069 10.2685 1.82991C10.281 1.83298 10.3029 1.83913 10.306 1.84528C10.3217 1.85143 10.3342 1.85758 10.3498 1.86373C10.4936 1.93136 10.628 2.01437 10.7592 2.10352C10.778 2.11889 10.7999 2.13119 10.8186 2.14656C10.8624 2.18345 10.9061 2.21727 10.9468 2.25416C11.0374 2.33409 11.1218 2.4171 11.2031 2.50625C11.225 2.52777 11.2437 2.55236 11.2625 2.57696C11.2687 2.58311 11.2718 2.58925 11.2781 2.5954C11.3156 2.65074 11.3594 2.70608 11.3969 2.76449C11.4688 2.87516 11.5313 2.99506 11.5844 3.11495C11.5938 3.13647 11.6094 3.17337 11.6125 3.18259C11.6282 3.2287 11.6438 3.27482 11.6594 3.32093C11.6875 3.40701 11.7094 3.49616 11.7282 3.58224C11.7376 3.62836 11.7469 3.67447 11.7532 3.72059C11.7532 3.72673 11.7532 3.72673 11.7532 3.72981C11.7532 3.7544 11.7594 3.779 11.7626 3.80052C11.7719 3.88045 11.7719 3.96038 11.7751 4.04031C11.7563 4.39385 11.7563 4.74739 11.7782 5.10093C11.8094 5.59282 12.5908 5.59589 12.5596 5.10093C12.5408 4.79966 12.5377 4.49223 12.5471 4.1848C12.5471 4.16636 12.5596 4.14791 12.5596 4.12946C12.5596 4.10487 12.5596 4.08028 12.5565 4.05568C12.6033 3.21641 12.7784 2.3802 13.1659 1.6393C13.2503 1.47637 13.3472 1.31651 13.4504 1.16587C13.491 1.10438 13.5348 1.04597 13.5785 0.987559C13.5816 0.981411 13.5848 0.978336 13.5879 0.975262C13.591 0.969113 13.5973 0.966039 13.6035 0.956816C13.6223 0.935296 13.641 0.913777 13.6598 0.892257C13.7379 0.803103 13.8192 0.710875 13.913 0.637092C14.3005 0.323517 13.7473 -0.217555 13.3597 0.0929462L13.3629 0.0990948Z" fill="#A62423"/>
<path d="M23.9899 10.5146C24.1993 10.5146 24.3618 10.693 24.3462 10.8959C24.0368 15.0369 18.7045 18.3325 12.1752 18.3325C5.64584 18.3325 0.313598 15.0369 0.00103951 10.8959C-0.0145884 10.6899 0.147942 10.5146 0.357356 10.5146H23.9899Z" fill="#FCBD1F"/>
<path d="M22.277 15.3197C22.277 15.4057 22.277 15.4887 22.2739 15.5748C22.1207 20.4445 17.6574 24.3488 12.172 24.3488C6.68661 24.3488 2.22641 20.4445 2.07326 15.5748C2.07013 15.4887 2.07013 15.4057 2.07013 15.3197C2.07013 9.829 4.77376 3.59131 12.172 3.59131C19.5703 3.59131 22.277 9.829 22.277 15.3197Z" fill="#FCBD1F"/>
<path d="M4.77379 11.821C4.77379 13.2641 5.96326 14.4341 7.43054 14.4341C8.89782 14.4341 10.0873 13.2641 10.0873 11.821V9.42302C10.0873 7.97983 8.89782 6.80989 7.43054 6.80989C5.96326 6.80989 4.77379 7.97983 4.77379 9.42302L4.77379 11.821Z" fill="white"/>
<mask id="mask0_645_1312" style="mask-type:luminance" maskUnits="userSpaceOnUse" x="4" y="6" width="7" height="9">
<path d="M4.77379 11.821C4.77379 13.2641 5.96326 14.4341 7.43054 14.4341C8.89782 14.4341 10.0873 13.2641 10.0873 11.821V9.42302C10.0873 7.97983 8.89782 6.80989 7.43054 6.80989C5.96326 6.80989 4.77379 7.97983 4.77379 9.42302L4.77379 11.821Z" fill="white"/>
</mask>
<g mask="url(#mask0_645_1312)">
<path d="M6.54281 10.8005C6.54281 11.8125 7.37614 12.6328 8.4041 12.6328C9.43206 12.6328 10.2654 11.8125 10.2654 10.8005V8.78075C10.2654 7.76882 9.43206 6.94849 8.4041 6.94849C7.37614 6.94849 6.54281 7.76882 6.54281 8.78075V10.8005Z" fill="#232323"/>
<path d="M7.23362 9.21401C7.79119 9.21401 8.24319 8.76943 8.24319 8.22102C8.24319 7.6726 7.79119 7.22803 7.23362 7.22803C6.67606 7.22803 6.22406 7.6726 6.22406 8.22102C6.22406 8.76943 6.67606 9.21401 7.23362 9.21401Z" fill="white"/>
</g>
<path d="M19.5766 9.42026C19.5766 7.97707 18.3871 6.80713 16.9198 6.80713C15.4525 6.80713 14.2631 7.97707 14.2631 9.42026V11.8182C14.2631 13.2614 15.4525 14.4313 16.9198 14.4313C18.3871 14.4313 19.5766 13.2614 19.5766 11.8182V9.42026Z" fill="white"/>
<mask id="mask1_645_1312" style="mask-type:luminance" maskUnits="userSpaceOnUse" x="14" y="6" width="6" height="9">
<path d="M19.5766 9.42026C19.5766 7.97707 18.3871 6.80713 16.9198 6.80713C15.4525 6.80713 14.2631 7.97707 14.2631 9.42026V11.8182C14.2631 13.2614 15.4525 14.4313 16.9198 14.4313C18.3871 14.4313 19.5766 13.2614 19.5766 11.8182V9.42026Z" fill="white"/>
</mask>
<g mask="url(#mask1_645_1312)">
<path d="M17.8075 8.78393C17.8075 7.77199 16.9741 6.95166 15.9462 6.95166C14.9182 6.95166 14.0849 7.77199 14.0849 8.78393V10.8037C14.0849 11.8157 14.9182 12.636 15.9462 12.636C16.9741 12.636 17.8075 11.8157 17.8075 10.8037V8.78393Z" fill="#232323"/>
<path d="M14.8257 9.21449C15.3832 9.21449 15.8352 8.76992 15.8352 8.22151C15.8352 7.67309 15.3832 7.22852 14.8257 7.22852C14.2681 7.22852 13.8161 7.67309 13.8161 8.22151C13.8161 8.76992 14.2681 9.21449 14.8257 9.21449Z" fill="white"/>
</g>
<path d="M13.6411 12.8354C13.6411 13.4718 13.2223 14.0098 12.6409 14.2004C12.494 14.2496 12.3377 14.2741 12.1752 14.2741C12.0127 14.2741 11.8564 14.2496 11.7095 14.2004C11.1281 14.0098 10.7093 13.4718 10.7093 12.8354C10.7093 12.0392 11.3657 11.3936 12.1752 11.3936C12.9847 11.3936 13.6411 12.0392 13.6411 12.8354Z" fill="#A62423"/>
<path d="M13.7598 12.8479C13.141 12.9032 12.5846 13.1799 12.1752 13.595C11.7657 13.1799 11.2094 12.9032 10.5905 12.8479C10.453 12.8356 10.353 12.7065 10.3748 12.5712C10.5061 11.7074 11.2625 11.0464 12.1783 11.0464C13.0941 11.0464 13.8505 11.7074 13.9818 12.5712C14.0036 12.7065 13.9036 12.8356 13.7661 12.8479H13.7598Z" fill="#EA5A27"/>
<path d="M22.277 15.3169C22.277 17.9577 21.0112 20.331 18.992 21.9819C17.4261 23.2639 15.4039 24.1124 13.1691 24.3061C12.8409 24.3337 12.5096 24.3491 12.1751 24.3491C6.59285 24.3491 2.07013 20.3064 2.07013 15.3169L5.44888 17.0569L6.00211 17.3398L9.70905 16.2361L11.3437 16.9678L12.3783 17.4289L15.7852 15.3169L19.4921 16.0578L22.277 15.3169Z" fill="#FCDFA5"/>
<path d="M2.07013 15.3198L6.00211 17.604L9.68405 16.4634L12.3783 17.7362L15.8602 15.6026L19.4671 16.3251L22.277 15.3198L19.4921 15.8455L15.6727 15.2061L12.3783 17.2136L9.70905 15.9531L6.00211 17.0691L2.07013 15.3198Z" fill="#E5B75A"/>
<path d="M18.9921 21.9817C17.4262 23.2636 15.4039 24.1121 13.1691 24.3058C12.5128 23.319 12.9378 21.8372 14.2224 20.835C15.6258 19.7375 17.5293 19.6299 18.4732 20.5952C18.8452 20.9733 19.0108 21.4621 18.9921 21.9817Z" fill="#E5B75A"/>
<path d="M10.9656 19.0703C10.0216 20.0356 8.11816 19.928 6.71165 18.8305C6.0584 18.3202 5.6302 17.6869 5.44891 17.0567L6.00214 17.3395L9.70908 16.2358L11.3438 16.9675C11.6126 17.7392 11.5032 18.52 10.9656 19.0703Z" fill="#E5B75A"/>
</svg>
