<svg width="31" height="40" viewBox="0 0 31 40" fill="none" xmlns="http://www.w3.org/2000/svg">
<path d="M11.0789 36.8867H8.81992C8.19696 36.8867 7.69196 37.3917 7.69196 38.0147V38.0178C7.69196 38.6407 8.19696 39.1457 8.81992 39.1457H11.0789C11.7019 39.1457 12.2069 38.6407 12.2069 38.0178V38.0147C12.2069 37.3917 11.7019 36.8867 11.0789 36.8867Z" fill="#EA5A27"/>
<path d="M22.3524 36.8867H20.0934C19.4705 36.8867 18.9655 37.3917 18.9655 38.0147V38.0178C18.9655 38.6407 19.4705 39.1457 20.0934 39.1457H22.3524C22.9754 39.1457 23.4804 38.6407 23.4804 38.0178V38.0147C23.4804 37.3917 22.9754 36.8867 22.3524 36.8867Z" fill="#EA5A27"/>
<path d="M0.951935 29.7484L10.8509 25.7112L7.58103 16.5396C3.28491 20.7802 -0.801646 25.9053 0.135241 29.3755C0.227696 29.7176 0.600602 29.8933 0.951935 29.7484Z" fill="#17221A"/>
<path d="M29.524 29.7484L19.625 25.7112L22.8949 16.5396C27.1941 20.7802 31.2775 25.9053 30.3406 29.3755C30.2482 29.7176 29.8753 29.8933 29.524 29.7484Z" fill="#17221A"/>
<path d="M25.6919 20.3515L21.3098 32.7478C20.4234 35.2566 18.0955 36.1486 15.4941 36.1486C12.8928 36.1486 10.5623 35.2593 9.67587 32.7478L5.29376 20.3515C4.99916 19.1227 5.22274 17.91 5.80141 16.9318C6.56157 15.6437 7.94512 14.7544 9.57066 14.7544H21.4124C23.0405 14.7544 24.4214 15.641 25.1842 16.9318C25.7629 17.9127 25.9865 19.1254 25.6893 20.3515H25.6919Z" fill="#17221A"/>
<path d="M18.8638 6.82246C17.3444 6.28314 13.828 6.28314 12.3086 6.82246C11.2053 7.21386 9.84931 8.90889 9.26376 10.0584L6.42228 15.6428C6.15108 16.179 5.85214 16.7029 5.56552 17.2299C4.87827 18.4935 4.76116 19.5814 5.38677 20.0837C6.09868 20.657 7.59339 20.3118 9.19288 19.3256C8.9001 21.0268 9.21445 22.3551 10.1144 22.6602C11.0143 22.9684 12.2655 22.1702 13.3534 20.7463C13.7787 22.4198 14.62 23.5601 15.5877 23.5601C16.5555 23.5601 17.3906 22.4229 17.819 20.7432C18.9038 22.1702 20.1551 22.9684 21.0581 22.6602C21.961 22.352 22.2723 21.0237 21.9826 19.3256C23.579 20.3118 25.0737 20.657 25.7887 20.0837C26.4113 19.5814 26.2972 18.4966 25.6069 17.233C25.3203 16.7091 25.0244 16.1883 24.7563 15.6582L21.9086 10.0615C21.3231 8.91197 19.9671 7.21694 18.8638 6.82555V6.82246Z" fill="#EA5A27"/>
<path d="M11.0451 24.3452C11.0451 25.1835 10.364 25.8646 9.52571 25.8646C8.68744 25.8646 8.00635 25.1835 8.00635 24.3452H11.042H11.0451Z" fill="#4D5B51"/>
<path d="M13.2332 28.7715C13.2332 29.6098 12.5521 30.2908 11.7138 30.2908C10.8755 30.2908 10.1945 29.6098 10.1945 28.7715H13.2301H13.2332Z" fill="#4D5B51"/>
<path d="M20.9779 28.7715C20.9779 29.6098 20.2968 30.2908 19.4586 30.2908C18.6203 30.2908 17.9392 29.6098 17.9392 28.7715H20.9748H20.9779Z" fill="#4D5B51"/>
<path d="M23.1692 24.3452C23.1692 25.1835 22.4881 25.8646 21.6498 25.8646C20.8115 25.8646 20.1304 25.1835 20.1304 24.3452H23.1661H23.1692Z" fill="#4D5B51"/>
<path d="M17.1071 25.9434C17.1071 26.7816 16.426 27.4627 15.5877 27.4627C14.7495 27.4627 14.0684 26.7816 14.0684 25.9434H17.104H17.1071Z" fill="#4D5B51"/>
<path d="M17.1071 32.4604C17.1071 33.2987 16.426 33.9798 15.5878 33.9798C14.7495 33.9798 14.0684 33.2987 14.0684 32.4604H17.1041H17.1071Z" fill="#4D5B51"/>
<path d="M18.4292 5.46041C18.0254 6.12301 17.4121 6.48359 16.7958 7.01675C16.3612 7.32802 15.7726 7.78414 15.5291 7.97521C15.4613 8.0276 15.372 8.02452 15.3072 7.96597C15.0514 7.73174 14.3919 7.14619 13.979 6.89039C13.304 6.35107 12.6568 6.0059 12.3456 5.13681C12.022 4.3571 12.2007 2.02413 13.1253 1.95941C13.153 1.95941 13.1807 1.95941 13.2054 1.97174C13.5198 2.11659 13.5228 3.21989 13.8064 3.83627C13.9327 4.19685 14.5645 5.30015 14.4474 4.34169C14.4073 3.87325 14.2933 3.36166 14.2779 2.88397C14.2378 2.15665 14.4443 1.55569 14.7063 0.920823C14.8912 0.464707 15.3504 -0.466016 15.825 0.279795C16.4999 1.40159 16.8389 2.52647 16.4968 3.84243C16.4968 3.84859 16.4968 3.85168 16.4968 3.85784C16.4691 4.10439 16.3397 4.54818 16.4444 4.7146C16.7218 4.63447 17.1132 3.73148 17.2087 3.34317C17.3135 2.98259 17.3474 2.58811 17.443 2.26143C17.4923 2.0981 17.5632 1.98715 17.6679 1.95633C18.6172 1.95633 18.9747 4.69611 18.4538 5.42343L18.4322 5.45733L18.4292 5.46041Z" fill="#A62423"/>
<path d="M17.4091 15.806C16.9684 16.2467 16.2534 16.2467 15.8127 15.806C15.7295 15.7228 15.6555 15.5934 15.5877 15.4331C15.5199 15.5934 15.4459 15.7228 15.3627 15.806C14.922 16.2467 14.207 16.2467 13.7663 15.806C13.3256 15.3653 13.3256 14.6503 13.7663 14.2096C14.0098 13.9661 14.6601 13.7997 15.1963 13.698C15.3412 13.6734 15.4737 13.6518 15.5908 13.6333C15.7048 13.6518 15.8404 13.6734 15.9822 13.698C16.5184 13.7997 17.1656 13.9661 17.4091 14.2096C17.8498 14.6503 17.8498 15.3653 17.4091 15.806Z" fill="#A62423"/>
<path d="M8.28982 11.4424C8.28982 12.8892 9.46265 14.062 10.9094 14.062C12.3562 14.062 13.529 12.8892 13.529 11.4424V9.03857C13.529 7.59181 12.3562 6.41899 10.9094 6.41899C9.46265 6.41899 8.28982 7.59181 8.28982 9.03857V11.4424Z" fill="white"/>
<mask id="mask0_645_1385" style="mask-type:luminance" maskUnits="userSpaceOnUse" x="8" y="6" width="6" height="9">
<path d="M8.28982 11.4424C8.28982 12.8892 9.46265 14.062 10.9094 14.062C12.3562 14.062 13.529 12.8892 13.529 11.4424V9.03857C13.529 7.59181 12.3562 6.41899 10.9094 6.41899C9.46265 6.41899 8.28982 7.59181 8.28982 9.03857V11.4424Z" fill="white"/>
</mask>
<g mask="url(#mask0_645_1385)">
<path d="M10.0312 10.4191C10.0312 11.4335 10.8528 12.2559 11.8664 12.2559C12.88 12.2559 13.7017 11.4335 13.7017 10.4191V8.39428C13.7017 7.37985 12.88 6.55749 11.8664 6.55749C10.8528 6.55749 10.0312 7.37985 10.0312 8.39428V10.4191Z" fill="#232323"/>
<path d="M10.7153 8.82877C11.2651 8.82877 11.7107 8.3831 11.7107 7.83333C11.7107 7.28357 11.2651 6.83789 10.7153 6.83789C10.1655 6.83789 9.71985 7.28357 9.71985 7.83333C9.71985 8.3831 10.1655 8.82877 10.7153 8.82877Z" fill="white"/>
</g>
<path d="M22.8856 9.0356C22.8856 7.58884 21.7128 6.41602 20.266 6.41602C18.8193 6.41602 17.6464 7.58884 17.6464 9.0356V11.4395C17.6464 12.8862 18.8193 14.059 20.266 14.059C21.7128 14.059 22.8856 12.8862 22.8856 11.4395V9.0356Z" fill="white"/>
<mask id="mask1_645_1385" style="mask-type:luminance" maskUnits="userSpaceOnUse" x="17" y="6" width="6" height="9">
<path d="M22.8856 9.0356C22.8856 7.58884 21.7128 6.41602 20.266 6.41602C18.8193 6.41602 17.6464 7.58884 17.6464 9.0356V11.4395C17.6464 12.8862 18.8193 14.059 20.266 14.059C21.7128 14.059 22.8856 12.8862 22.8856 11.4395V9.0356Z" fill="white"/>
</mask>
<g mask="url(#mask1_645_1385)">
<path d="M21.1413 8.39783C21.1413 7.38339 20.3196 6.56104 19.306 6.56104C18.2924 6.56104 17.4708 7.38339 17.4708 8.39783V10.4226C17.4708 11.437 18.2924 12.2594 19.306 12.2594C20.3196 12.2594 21.1413 11.437 21.1413 10.4226V8.39783Z" fill="#232323"/>
<path d="M20.2661 8.82926C20.8158 8.82926 21.2615 8.38359 21.2615 7.83382C21.2615 7.28405 20.8158 6.83838 20.2661 6.83838C19.7163 6.83838 19.2706 7.28405 19.2706 7.83382C19.2706 8.38359 19.7163 8.82926 20.2661 8.82926Z" fill="white"/>
</g>
<path d="M17.0332 12.463C17.0332 13.1009 16.6202 13.6402 16.047 13.8313C15.9021 13.8806 15.748 13.9053 15.5878 13.9053C15.4275 13.9053 15.2734 13.8806 15.1286 13.8313C14.5554 13.6402 14.1424 13.1009 14.1424 12.463C14.1424 11.6648 14.7896 11.0176 15.5878 11.0176C16.386 11.0176 17.0332 11.6648 17.0332 12.463Z" fill="#C48D1E"/>
<path d="M17.1503 12.472C16.54 12.5275 15.9915 12.8048 15.5878 13.2209C15.184 12.8048 14.6355 12.5275 14.0252 12.472C13.8896 12.4597 13.791 12.3302 13.8126 12.1946C13.942 11.3286 14.6878 10.666 15.5908 10.666C16.4938 10.666 17.2396 11.3286 17.3691 12.1946C17.3906 12.3302 17.292 12.4597 17.1564 12.472H17.1503Z" fill="#FCBD1F"/>
<path d="M16.812 8.38071L16.9175 8.54737C17.0322 8.72858 17.2721 8.78251 17.4533 8.66782L21.0392 6.3983C21.2204 6.2836 21.2743 6.04372 21.1596 5.86251L21.0541 5.69584C20.9395 5.51463 20.6996 5.4607 20.5184 5.57539L16.9325 7.84492C16.7513 7.95961 16.6973 8.19949 16.812 8.38071Z" fill="#17221A"/>
<path d="M9.82505 5.69369L9.71957 5.86036C9.60488 6.04157 9.65881 6.28145 9.84002 6.39615L13.4259 8.66567C13.6071 8.78036 13.847 8.72643 13.9617 8.54522L14.0672 8.37856C14.1819 8.19734 14.1279 7.95746 13.9467 7.84277L10.3608 5.57324C10.1796 5.45855 9.93975 5.51248 9.82505 5.69369Z" fill="#17221A"/>
</svg>
