<svg width="30" height="35" viewBox="0 0 30 35" fill="none" xmlns="http://www.w3.org/2000/svg">
<path d="M28.8475 26.5344C29.1002 26.5344 29.2943 26.2817 29.2759 25.9889C28.9029 20.0779 22.4927 15.375 14.6401 15.375C6.78749 15.375 0.377206 20.0779 0.00121892 25.9889C-0.0172723 26.2817 0.176885 26.5344 0.429598 26.5344H28.8475Z" fill="#A62423"/>
<path d="M12.0945 5.38363L4.11554 19.8407C2.14314 23.4156 3.30501 28.2172 6.63034 30.0139C11.1206 32.4393 18.0425 32.4393 22.5328 30.0139C25.8581 28.2172 27.02 23.4156 25.0476 19.8407L17.0686 5.38363C15.9098 3.28488 13.2533 3.28488 12.0945 5.38363Z" fill="#A62423"/>
<mask id="mask0_645_1347" style="mask-type:luminance" maskUnits="userSpaceOnUse" x="3" y="3" width="24" height="29">
<path d="M12.0945 5.38363L4.11554 19.8407C2.14314 23.4156 3.30501 28.2172 6.63034 30.0139C11.1206 32.4393 18.0425 32.4393 22.5328 30.0139C25.8581 28.2172 27.02 23.4156 25.0476 19.8407L17.0686 5.38363C15.9098 3.28488 13.2533 3.28488 12.0945 5.38363Z" fill="white"/>
</mask>
<g mask="url(#mask0_645_1347)">
<path d="M23.3988 20.6511C24.1045 21.4647 24.2463 22.2414 23.6515 22.6759C23.0567 23.1104 21.8671 23.0981 20.5635 22.7221C20.7052 23.6559 20.357 24.4018 19.5464 24.636C18.7328 24.8764 17.6573 24.5466 16.6988 23.8532C16.2488 24.7408 15.4691 25.3325 14.5816 25.3325C13.694 25.3325 12.9112 24.7408 12.4643 23.8532C11.5059 24.5466 10.4272 24.8764 9.61667 24.6391C8.80306 24.3987 8.45789 23.6529 8.59966 22.7221C7.29603 23.0981 6.10643 23.1104 5.50855 22.6759C4.91375 22.2414 5.05551 21.4678 5.76434 20.6511C5.24043 20.6511 4.76274 20.608 4.35285 20.5248C4.02617 20.46 3.86283 20.0902 4.02309 19.7974V19.7913L5.18495 17.6925L12.076 5.21098C13.244 3.09374 15.9222 3.09374 17.0902 5.21098L23.9812 17.6987L25.14 19.7944C25.14 19.7944 25.14 19.7974 25.14 19.8005C25.3003 20.0933 25.1277 20.4662 24.7979 20.5309C24.3911 20.6111 23.9165 20.6511 23.3957 20.6542L23.3988 20.6511Z" fill="#EA5A27"/>
</g>
<path d="M11.9064 32.6953H9.64743C9.02448 32.6953 8.51947 33.2003 8.51947 33.8233V33.8264C8.51947 34.4493 9.02448 34.9543 9.64743 34.9543H11.9064C12.5294 34.9543 13.0344 34.4493 13.0344 33.8264V33.8233C13.0344 33.2003 12.5294 32.6953 11.9064 32.6953Z" fill="#FCBD1F"/>
<path d="M19.5156 32.6953H17.2566C16.6337 32.6953 16.1287 33.2003 16.1287 33.8233V33.8264C16.1287 34.4493 16.6337 34.9543 17.2566 34.9543H19.5156C20.1386 34.9543 20.6436 34.4493 20.6436 33.8264V33.8233C20.6436 33.2003 20.1386 32.6953 19.5156 32.6953Z" fill="#FCBD1F"/>
<path d="M10.0388 26.3247C10.0388 27.163 9.35775 27.8441 8.51948 27.8441C7.68121 27.8441 7.00012 27.163 7.00012 26.3247H10.0358H10.0388Z" fill="#7C1C1C"/>
<path d="M22.1629 26.3247C22.1629 27.163 21.4818 27.8441 20.6436 27.8441C19.8053 27.8441 19.1242 27.163 19.1242 26.3247H22.1598H22.1629Z" fill="#7C1C1C"/>
<path d="M16.1009 28.6606C16.1009 29.4989 15.4198 30.18 14.5815 30.18C13.7432 30.18 13.0621 29.4989 13.0621 28.6606H16.0978H16.1009Z" fill="#7C1C1C"/>
<path d="M16.0793 1.92885C15.728 2.00281 15.4414 2.10451 15.2041 2.22779C14.8497 1.16454 13.6909 0.344768 12.6461 0.0735642C11.9743 -0.0990202 10.9881 0.00884506 10.572 0.646791C10.005 1.5282 10.6491 2.41886 11.4041 2.91813C12.002 3.31569 12.7078 3.46362 13.3118 3.83344C13.7525 4.10464 14.1439 4.47447 14.4459 4.8936C14.5168 4.99222 14.5908 4.93983 14.6586 4.87203C14.7356 4.79498 14.8188 4.7241 14.9082 4.65938C15.3612 4.33578 15.9437 4.24333 16.4892 4.23408C16.5478 4.23408 16.6032 4.23408 16.6618 4.23408C18.4863 4.26182 18.9763 1.30939 16.0793 1.92576V1.92885Z" fill="#A62423"/>
<path d="M7.28366 12.8355C7.28366 14.2823 8.45649 15.4551 9.90324 15.4551C11.35 15.4551 12.5228 14.2823 12.5228 12.8355V10.4316C12.5228 8.98488 11.35 7.81205 9.90324 7.81205C8.45649 7.81205 7.28366 8.98488 7.28366 10.4316L7.28366 12.8355Z" fill="white"/>
<mask id="mask1_645_1347" style="mask-type:luminance" maskUnits="userSpaceOnUse" x="7" y="7" width="6" height="9">
<path d="M7.28366 12.8355C7.28366 14.2823 8.45649 15.4551 9.90324 15.4551C11.35 15.4551 12.5228 14.2823 12.5228 12.8355V10.4316C12.5228 8.98488 11.35 7.81205 9.90324 7.81205C8.45649 7.81205 7.28366 8.98488 7.28366 10.4316L7.28366 12.8355Z" fill="white"/>
</mask>
<g mask="url(#mask1_645_1347)">
<path d="M9.02799 11.8151C9.02799 12.8295 9.84966 13.6519 10.8632 13.6519C11.8768 13.6519 12.6985 12.8295 12.6985 11.8151V9.79028C12.6985 8.77585 11.8768 7.95349 10.8632 7.95349C9.84966 7.95349 9.02799 8.77585 9.02799 9.79028V11.8151Z" fill="#232323"/>
<path d="M9.70913 10.2218C10.2589 10.2218 10.7046 9.77617 10.7046 9.2264C10.7046 8.67663 10.2589 8.23096 9.70913 8.23096C9.15936 8.23096 8.71368 8.67663 8.71368 9.2264C8.71368 9.77617 9.15936 10.2218 9.70913 10.2218Z" fill="white"/>
</g>
<path d="M21.8794 10.4316C21.8794 8.98484 20.7065 7.81201 19.2598 7.81201C17.813 7.81201 16.6402 8.98484 16.6402 10.4316V12.8355C16.6402 14.2822 17.813 15.455 19.2598 15.455C20.7065 15.455 21.8794 14.2822 21.8794 12.8355V10.4316Z" fill="white"/>
<mask id="mask2_645_1347" style="mask-type:luminance" maskUnits="userSpaceOnUse" x="16" y="7" width="6" height="9">
<path d="M21.8794 10.4316C21.8794 8.98484 20.7065 7.81201 19.2598 7.81201C17.813 7.81201 16.6402 8.98484 16.6402 10.4316V12.8355C16.6402 14.2822 17.813 15.455 19.2598 15.455C20.7065 15.455 21.8794 14.2822 21.8794 12.8355V10.4316Z" fill="white"/>
</mask>
<g mask="url(#mask2_645_1347)">
<path d="M20.1351 9.7904C20.1351 8.77597 19.3134 7.95361 18.2999 7.95361C17.2863 7.95361 16.4646 8.77597 16.4646 9.7904V11.8152C16.4646 12.8296 17.2863 13.652 18.2999 13.652C19.3134 13.652 20.1351 12.8296 20.1351 11.8152V9.7904Z" fill="#232323"/>
<path d="M17.195 10.2218C17.7447 10.2218 18.1904 9.77617 18.1904 9.2264C18.1904 8.67663 17.7447 8.23096 17.195 8.23096C16.6452 8.23096 16.1995 8.67663 16.1995 9.2264C16.1995 9.77617 16.6452 10.2218 17.195 10.2218Z" fill="white"/>
</g>
<path d="M16.0269 13.8556C16.0269 14.4935 15.6139 15.0328 15.0407 15.2239C14.8959 15.2732 14.7418 15.2979 14.5815 15.2979C14.4212 15.2979 14.2672 15.2732 14.1223 15.2239C13.5491 15.0328 13.1361 14.4935 13.1361 13.8556C13.1361 13.0573 13.7833 12.4102 14.5815 12.4102C15.3797 12.4102 16.0269 13.0573 16.0269 13.8556Z" fill="#C48D1E"/>
<path d="M16.1471 13.868C15.5369 13.9235 14.9883 14.2008 14.5846 14.6169C14.1809 14.2008 13.6323 13.9235 13.0221 13.868C12.8865 13.8557 12.7879 13.7262 12.8094 13.5906C12.9389 12.7246 13.6847 12.062 14.5877 12.062C15.4906 12.062 16.2365 12.7246 16.3659 13.5906C16.3875 13.7262 16.2888 13.8557 16.1532 13.868H16.1471Z" fill="#FCBD1F"/>
</svg>
