<svg width="24" height="24" viewBox="0 0 24 24" fill="none" xmlns="http://www.w3.org/2000/svg">
<g clip-path="url(#clip0_57_25885)">
<path d="M17.8649 6.13111C19.8224 8.08861 20.2949 10.9686 19.2787 13.3724C19.8712 13.5374 20.4187 13.8111 20.8949 14.1711C22.2412 11.0961 21.6562 7.37611 19.1399 4.85986C15.8587 1.57861 10.5412 1.57861 7.2599 4.85986L5.00615 7.11361C4.10615 8.01361 3.5999 9.23611 3.5999 10.5074V10.6124C3.5999 11.8836 4.10615 13.1061 5.00615 14.0061C5.50865 14.5086 5.45615 15.3411 4.89365 15.7761L3.0449 17.2011C2.63615 17.5161 2.3999 17.9999 2.3999 18.5136C2.3999 18.9524 2.57615 19.3724 2.88365 19.6836L4.3124 21.1124C4.62365 21.4236 5.04365 21.5961 5.4824 21.5961C5.99615 21.5961 6.4799 21.3599 6.7949 20.9511L8.2199 19.1024C8.6549 18.5399 9.4874 18.4836 9.9899 18.9899C10.8899 19.8899 12.1124 20.3961 13.3837 20.3961H13.4849C13.6012 20.3961 13.7137 20.3924 13.8299 20.3849C13.5187 19.8449 13.3124 19.2374 13.2299 18.5924C12.4912 18.5549 11.7862 18.2436 11.2612 17.7186C9.9899 16.4474 7.8899 16.5824 6.79115 18.0074L5.47115 19.7249L4.27115 18.5249L5.98865 17.2011C7.41365 16.1024 7.54865 14.0024 6.2774 12.7311C5.7149 12.1686 5.3999 11.4036 5.3999 10.6086V10.5074C5.3999 10.0949 5.48615 9.68986 5.6474 9.31861L13.3087 16.9799C13.4474 16.3349 13.7174 15.7349 14.0887 15.2136L6.76865 7.89736L8.53115 6.13486C11.1074 3.55861 15.2887 3.55861 17.8649 6.13486V6.13111ZM16.1999 17.9999C16.1999 17.5225 16.3895 17.0646 16.7271 16.7271C17.0647 16.3895 17.5225 16.1999 17.9999 16.1999C18.4773 16.1999 18.9351 16.3895 19.2727 16.7271C19.6103 17.0646 19.7999 17.5225 19.7999 17.9999C19.7999 18.4773 19.6103 18.9351 19.2727 19.2727C18.9351 19.6102 18.4773 19.7999 17.9999 19.7999C17.5225 19.7999 17.0647 19.6102 16.7271 19.2727C16.3895 18.9351 16.1999 18.4773 16.1999 17.9999ZM21.5999 17.9999C21.5999 17.0451 21.2206 16.1294 20.5455 15.4543C19.8704 14.7791 18.9547 14.3999 17.9999 14.3999C17.0451 14.3999 16.1294 14.7791 15.4543 15.4543C14.7792 16.1294 14.3999 17.0451 14.3999 17.9999C14.3999 18.9546 14.7792 19.8703 15.4543 20.5454C16.1294 21.2206 17.0451 21.5999 17.9999 21.5999C18.9547 21.5999 19.8704 21.2206 20.5455 20.5454C21.2206 19.8703 21.5999 18.9546 21.5999 17.9999Z" fill="#20363D"/>
</g>
<defs>
<clipPath id="clip0_57_25885">
<rect width="24" height="19.2" fill="white" transform="translate(0 2.3999)"/>
</clipPath>
</defs>
</svg>
