<svg xmlns="http://www.w3.org/2000/svg" width="24" height="24" viewBox="0 0 24 24" fill="none">
<path d="M6.07012 9.51953C5.02012 9.51953 3.97012 9.78953 3.17012 10.3195C1.77012 11.2495 1.77012 12.7795 3.17012 13.7195C3.97012 14.2495 5.02012 14.5195 6.07012 14.5195" stroke="#fff" stroke-width="1.5" stroke-linecap="square" />
<path d="M6.08 7.16C7.50489 7.16 8.66 6.00489 8.66 4.58C8.66 3.15511 7.50489 2 6.08 2C4.65511 2 3.5 3.15511 3.5 4.58C3.5 6.00489 4.65511 7.16 6.08 7.16Z" stroke="#fff" stroke-width="1.5" stroke-linecap="square" />
<path d="M17.9102 14.5195C18.9602 14.5195 20.0102 14.2495 20.8102 13.7195C22.2102 12.7795 22.2102 11.2495 20.8102 10.3195C20.0202 9.78953 18.9702 9.51953 17.9102 9.51953" stroke="#fff" stroke-width="1.5" stroke-linecap="square" />
<path d="M17.9101 7.16C19.335 7.16 20.4901 6.00489 20.4901 4.58C20.4901 3.15511 19.335 2 17.9101 2C16.4852 2 15.3301 3.15511 15.3301 4.58C15.3301 6.00489 16.4852 7.16 17.9101 7.16Z" stroke="#fff" stroke-width="1.5" stroke-linecap="square" />
<path d="M9.0998 17.7901C7.6998 18.7301 7.6998 20.2601 9.0998 21.1901C10.6898 22.2601 13.3098 22.2601 14.8998 21.1901C16.2998 20.2501 16.2998 18.7201 14.8998 17.7901C13.3098 16.7301 10.6998 16.7301 9.0998 17.7901Z" stroke="#fff" stroke-width="1.5" stroke-linecap="square" />
<path d="M11.9999 14.6297C13.4248 14.6297 14.5799 13.4746 14.5799 12.0497C14.5799 10.6248 13.4248 9.46973 11.9999 9.46973C10.575 9.46973 9.41992 10.6248 9.41992 12.0497C9.41992 13.4746 10.575 14.6297 11.9999 14.6297Z" stroke="#fff" stroke-width="1.5" stroke-linecap="square" />
</svg>