<svg width="24" height="24" viewBox="0 0 24 24" fill="none" xmlns="http://www.w3.org/2000/svg">
<g clip-path="url(#clip0_57_25467)">
<g clip-path="url(#clip1_57_25467)">
<path d="M21.75 10.5C21.75 10.0875 21.4125 9.75 21 9.75H3C2.5875 9.75 2.25 10.0875 2.25 10.5V21C2.25 21.4125 2.5875 21.75 3 21.75H21C21.4125 21.75 21.75 21.4125 21.75 21V10.5ZM21 7.5C22.6547 7.5 24 8.84531 24 10.5V21C24 22.6547 22.6547 24 21 24H3C1.34531 24 0 22.6547 0 21V10.5C0 8.84531 1.34531 7.5 3 7.5H21ZM20.625 3.75C21.2484 3.75 21.75 4.25156 21.75 4.875C21.75 5.49844 21.2484 6 20.625 6H3.375C2.75156 6 2.25 5.49844 2.25 4.875C2.25 4.25156 2.75156 3.75 3.375 3.75H20.625ZM18.375 0C18.9984 0 19.5 0.501562 19.5 1.125C19.5 1.74844 18.9984 2.25 18.375 2.25H5.625C5.00156 2.25 4.5 1.74844 4.5 1.125C4.5 0.501562 5.00156 0 5.625 0H18.375Z" fill="#20363D"/>
</g>
</g>
<defs>
<clipPath id="clip0_57_25467">
<rect width="24" height="24" fill="white"/>
</clipPath>
<clipPath id="clip1_57_25467">
<rect width="24" height="24" fill="white"/>
</clipPath>
</defs>
</svg>
