<svg width="15" height="17" viewBox="0 0 15 17" fill="none" xmlns="http://www.w3.org/2000/svg">
<path d="M5.125 11.7671C4.57083 11.7671 4.10243 11.5758 3.71979 11.1932C3.33715 10.8105 3.14583 10.3421 3.14583 9.78796C3.14583 9.2338 3.33715 8.76539 3.71979 8.38276C4.10243 8.00012 4.57083 7.8088 5.125 7.8088C5.67917 7.8088 6.14757 8.00012 6.53021 8.38276C6.91285 8.76539 7.10417 9.2338 7.10417 9.78796C7.10417 10.3421 6.91285 10.8105 6.53021 11.1932C6.14757 11.5758 5.67917 11.7671 5.125 11.7671ZM1.95833 16.1213C1.52292 16.1213 1.15017 15.9663 0.840104 15.6562C0.530035 15.3461 0.375 14.9734 0.375 14.538V3.45463C0.375 3.01921 0.530035 2.64647 0.840104 2.3364C1.15017 2.02633 1.52292 1.8713 1.95833 1.8713H2.75V0.287964H4.33333V1.8713H10.6667V0.287964H12.25V1.8713H13.0417C13.4771 1.8713 13.8498 2.02633 14.1599 2.3364C14.47 2.64647 14.625 3.01921 14.625 3.45463V14.538C14.625 14.9734 14.47 15.3461 14.1599 15.6562C13.8498 15.9663 13.4771 16.1213 13.0417 16.1213H1.95833ZM1.95833 14.538H13.0417V6.6213H1.95833V14.538Z" fill="#79747E"/>
</svg>
