<svg width="24" height="24" viewBox="0 0 24 24" fill="none" xmlns="http://www.w3.org/2000/svg">
<g clip-path="url(#clip0_57_25582)">
<path d="M22.5 6C22.5 8.48438 20.4844 10.5 18 10.5C16.6453 10.5 15.4313 9.9 14.6063 8.95312L10.4016 11.0578C10.4672 11.3625 10.5 11.6766 10.5 12C10.5 12.3234 10.4672 12.6375 10.4016 12.9422L14.6063 15.0469C15.4313 14.1 16.6453 13.5 18 13.5C20.4844 13.5 22.5 15.5156 22.5 18C22.5 20.4844 20.4844 22.5 18 22.5C15.5156 22.5 13.5 20.4844 13.5 18C13.5 17.6766 13.5328 17.3625 13.5984 17.0578L9.39375 14.9531C8.56875 15.9 7.35469 16.5 6 16.5C3.51562 16.5 1.5 14.4844 1.5 12C1.5 9.51562 3.51562 7.5 6 7.5C7.35469 7.5 8.56875 8.1 9.39375 9.04688L13.5984 6.94219C13.5328 6.6375 13.5 6.32344 13.5 6C13.5 3.51562 15.5156 1.5 18 1.5C20.4844 1.5 22.5 3.51562 22.5 6ZM6 14.25C6.59674 14.25 7.16903 14.0129 7.59099 13.591C8.01295 13.169 8.25 12.5967 8.25 12C8.25 11.4033 8.01295 10.831 7.59099 10.409C7.16903 9.98705 6.59674 9.75 6 9.75C5.40326 9.75 4.83097 9.98705 4.40901 10.409C3.98705 10.831 3.75 11.4033 3.75 12C3.75 12.5967 3.98705 13.169 4.40901 13.591C4.83097 14.0129 5.40326 14.25 6 14.25ZM20.25 6C20.25 5.70453 20.1918 5.41194 20.0787 5.13896C19.9657 4.86598 19.7999 4.61794 19.591 4.40901C19.3821 4.20008 19.134 4.03434 18.861 3.92127C18.5881 3.8082 18.2955 3.75 18 3.75C17.7045 3.75 17.4119 3.8082 17.139 3.92127C16.866 4.03434 16.6179 4.20008 16.409 4.40901C16.2001 4.61794 16.0343 4.86598 15.9213 5.13896C15.8082 5.41194 15.75 5.70453 15.75 6C15.75 6.29547 15.8082 6.58806 15.9213 6.86104C16.0343 7.13402 16.2001 7.38206 16.409 7.59099C16.6179 7.79992 16.866 7.96566 17.139 8.07873C17.4119 8.1918 17.7045 8.25 18 8.25C18.2955 8.25 18.5881 8.1918 18.861 8.07873C19.134 7.96566 19.3821 7.79992 19.591 7.59099C19.7999 7.38206 19.9657 7.13402 20.0787 6.86104C20.1918 6.58806 20.25 6.29547 20.25 6ZM18 20.25C18.5967 20.25 19.169 20.0129 19.591 19.591C20.0129 19.169 20.25 18.5967 20.25 18C20.25 17.4033 20.0129 16.831 19.591 16.409C19.169 15.9871 18.5967 15.75 18 15.75C17.4033 15.75 16.831 15.9871 16.409 16.409C15.9871 16.831 15.75 17.4033 15.75 18C15.75 18.5967 15.9871 19.169 16.409 19.591C16.831 20.0129 17.4033 20.25 18 20.25Z" fill="#20363D"/>
</g>
<defs>
<clipPath id="clip0_57_25582">
<rect width="21" height="24" fill="white" transform="translate(1.5)"/>
</clipPath>
</defs>
</svg>
