<svg width="24" height="24" viewBox="0 0 24 24" fill="none" xmlns="http://www.w3.org/2000/svg">
<path d="M11.9955 1C12.3788 1 12.7288 1.22344 12.8955 1.58008L15.7538 7.65156L22.1372 8.62266C22.5122 8.67852 22.8247 8.94922 22.9413 9.32305C23.058 9.69687 22.9622 10.1008 22.6955 10.3758L18.0663 15.1109L19.158 21.7969C19.2205 22.1836 19.0663 22.5746 18.758 22.8066C18.4497 23.0387 18.0372 23.0645 17.7038 22.8797L11.9955 19.7344L6.29133 22.8754C5.95383 23.0602 5.54549 23.0344 5.23716 22.8023C4.92883 22.5703 4.77049 22.1793 4.83299 21.7926L5.92466 15.1066L1.29549 10.3758C1.02466 10.1008 0.932993 9.69258 1.04966 9.32305C1.16633 8.95352 1.47883 8.68281 1.85383 8.62266L8.23716 7.65156L11.0955 1.58008C11.2663 1.22344 11.6122 1 11.9955 1ZM11.9955 4.39453L9.80799 9.04375C9.66216 9.34883 9.38299 9.56367 9.05383 9.61523L4.12466 10.3629L7.70383 14.0195C7.93299 14.2559 8.04133 14.591 7.98716 14.9219L7.14133 20.0652L11.5247 17.6504C11.8205 17.4871 12.1747 17.4871 12.4663 17.6504L16.8497 20.0652L16.008 14.9262C15.9538 14.5953 16.058 14.2602 16.2913 14.0238L19.8705 10.3672L14.9413 9.61523C14.6163 9.56367 14.333 9.35312 14.1872 9.04375L11.9955 4.39453Z" fill="#20363D"/>
</svg>
