<svg width="24" height="24" viewBox="0 0 24 24" fill="none" xmlns="http://www.w3.org/2000/svg">
<g clip-path="url(#clip0_57_22804)">
<path d="M12.9542 2.02909C12.8208 1.61659 12.4375 1.33325 12 1.33325C11.5625 1.33325 11.1792 1.61659 11.0458 2.02909L8.93749 8.66659H2.33332C1.90415 8.66659 1.52499 8.93742 1.38749 9.34159C1.24999 9.74575 1.38332 10.1916 1.72082 10.4541L7.17082 14.6958L5.04582 21.3624C4.91249 21.7791 5.06665 22.2374 5.42498 22.4874C5.78332 22.7374 6.26665 22.7249 6.61248 22.4583L12 18.2666L17.3875 22.4541C17.7333 22.7249 18.2125 22.7374 18.575 22.4833C18.9375 22.2291 19.0875 21.7791 18.9542 21.3583L16.8292 14.6958L22.2792 10.4541C22.6167 10.1916 22.75 9.74575 22.6125 9.34159C22.475 8.93742 22.0958 8.66659 21.6667 8.66659H15.0625L12.9542 2.02909Z" fill="#20363D"/>
</g>
<defs>
<clipPath id="clip0_57_22804">
<rect width="24" height="21.3333" fill="white" transform="translate(0 1.33325)"/>
</clipPath>
</defs>
</svg>
