<svg xmlns="http://www.w3.org/2000/svg" width="24" height="24" viewBox="0 0 24 24" fill="#fff">
<g clip-path="url(#clip0_4482_12632)">
<path d="M12.0005 20.5205C9.82047 20.5205 7.63047 19.6905 5.97047 18.0305C2.65047 14.7005 2.65047 9.29047 5.97047 5.97047C9.29047 2.65047 14.7005 2.65047 18.0305 5.97047C21.3505 9.30047 21.3505 14.7105 18.0305 18.0305C16.3705 19.6905 14.1805 20.5205 12.0005 20.5205ZM12.0005 4.97047C10.2005 4.97047 8.40047 5.65047 7.03047 7.02047C4.29047 9.76047 4.29047 14.2205 7.03047 16.9605C9.77047 19.7005 14.2305 19.7005 16.9705 16.9605C19.7105 14.2205 19.7105 9.76047 16.9705 7.02047C15.6005 5.65047 13.8005 4.97047 12.0005 4.97047Z" fill="white" style="fill: var(--fillg);"/>
<path d="M12 22.7496C11.59 22.7496 11.25 22.4096 11.25 21.9996V17.5596C11.25 17.1496 11.59 16.8096 12 16.8096C12.41 16.8096 12.75 17.1496 12.75 17.5596V21.9996C12.75 22.4096 12.41 22.7496 12 22.7496Z" fill="white" style="fill: var(--fillg);"/>
<path d="M12 7.19C11.59 7.19 11.25 6.85 11.25 6.44V2C11.25 1.59 11.59 1.25 12 1.25C12.41 1.25 12.75 1.59 12.75 2V6.44C12.75 6.85 12.41 7.19 12 7.19Z" fill="white" style="fill: var(--fillg);"/>
<path d="M6.44 12.75H2C1.59 12.75 1.25 12.41 1.25 12C1.25 11.59 1.59 11.25 2 11.25H6.44C6.85 11.25 7.19 11.59 7.19 12C7.19 12.41 6.85 12.75 6.44 12.75Z" fill="white" style="fill: var(--fillg);"/>
<path d="M21.9996 12.75H17.5596C17.1496 12.75 16.8096 12.41 16.8096 12C16.8096 11.59 17.1496 11.25 17.5596 11.25H21.9996C22.4096 11.25 22.7496 11.59 22.7496 12C22.7496 12.41 22.4096 12.75 21.9996 12.75Z" fill="white" style="fill: var(--fillg);"/>
</g>
<defs>
<clipPath id="clip0_4482_12632">
<rect width="24" height="24" fill="white"/>
</clipPath>
</defs>
</svg>