<svg width="24" height="24" viewBox="0 0 24 24" fill="none" xmlns="http://www.w3.org/2000/svg">
<g clip-path="url(#clip0_231_11455)">
<path d="M11.625 21.7406C11.625 19.1531 12.6141 16.5656 14.5922 14.5875C16.5703 12.6094 19.1578 11.625 21.7453 11.6203C21.5484 6.53906 17.4609 2.45156 12.375 2.25938C12.375 4.84688 11.3859 7.43438 9.40781 9.4125C7.42969 11.3906 4.84688 12.375 2.25938 12.375C2.45156 17.4609 6.53906 21.5484 11.625 21.7406ZM13.875 21.5672C17.7563 20.8125 20.8125 17.7563 21.5719 13.875C19.6172 13.9219 17.6766 14.6859 16.1859 16.1813C14.6953 17.6766 13.9219 19.6125 13.875 21.5719V21.5672ZM2.43281 10.125C4.3875 10.0781 6.32812 9.31406 7.81875 7.81875C9.30937 6.32344 10.0781 4.3875 10.125 2.43281C6.24375 3.1875 3.1875 6.24375 2.43281 10.125ZM0 12C0 8.8174 1.26428 5.76516 3.51472 3.51472C5.76516 1.26428 8.8174 0 12 0C15.1826 0 18.2348 1.26428 20.4853 3.51472C22.7357 5.76516 24 8.8174 24 12C24 15.1826 22.7357 18.2348 20.4853 20.4853C18.2348 22.7357 15.1826 24 12 24C8.8174 24 5.76516 22.7357 3.51472 20.4853C1.26428 18.2348 0 15.1826 0 12Z" fill="#20363D"/>
</g>
<defs>
<clipPath id="clip0_231_11455">
<rect width="24" height="24" fill="white"/>
</clipPath>
</defs>
</svg>
