<svg xmlns="http://www.w3.org/2000/svg" width="24" height="24" viewBox="0 0 24 24" fill="#fff">
<g clip-path="url(#clip0_4482_8172)">
<path d="M18.6702 17.1899H16.4502C16.0402 17.1899 15.7002 16.8499 15.7002 16.4399C15.7002 16.0299 16.0402 15.6899 16.4502 15.6899H18.6702C19.0802 15.6899 19.4202 16.0299 19.4202 16.4399C19.4202 16.8499 19.0802 17.1899 18.6702 17.1899Z" fill="white" style="fill: var(--fillg);"/>
<path d="M20.8902 20.53H16.4502C16.0402 20.53 15.7002 20.19 15.7002 19.78C15.7002 19.37 16.0402 19.03 16.4502 19.03H20.8902C21.3002 19.03 21.6402 19.37 21.6402 19.78C21.6402 20.19 21.3002 20.53 20.8902 20.53Z" fill="white" style="fill: var(--fillg);"/>
<path d="M12 22.75C6.07 22.75 1.25 17.93 1.25 12C1.25 6.07 6.07 1.25 12 1.25C17.93 1.25 22.75 6.07 22.75 12C22.75 12.41 22.41 12.75 22 12.75C21.59 12.75 21.25 12.41 21.25 12C21.25 6.9 17.1 2.75 12 2.75C6.9 2.75 2.75 6.9 2.75 12C2.75 17.1 6.9 21.25 12 21.25C12.41 21.25 12.75 21.59 12.75 22C12.75 22.41 12.41 22.75 12 22.75Z" fill="white" style="fill: var(--fillg);"/>
<path d="M12.4296 13.1799H7.55957C7.14957 13.1799 6.80957 12.8399 6.80957 12.4299C6.80957 12.0199 7.14957 11.6799 7.55957 11.6799H11.6896V6.43994C11.6896 6.02994 12.0296 5.68994 12.4396 5.68994C12.8496 5.68994 13.1896 6.02994 13.1896 6.43994V12.4299C13.1896 12.8399 12.8496 13.1799 12.4396 13.1799H12.4296Z" fill="white" style="fill: var(--fillg);"/>
</g>
<defs>
<clipPath id="clip0_4482_8172">
<rect width="24" height="24" fill="white"/>
</clipPath>
</defs>
</svg>