<svg width="24" height="20" viewBox="0 0 24 20" fill="none" xmlns="http://www.w3.org/2000/svg">
<g clip-path="url(#clip0_400_3638)">
<path d="M5.4 5.1999C5.4 4.40425 5.71607 3.64119 6.27868 3.07858C6.84129 2.51597 7.60435 2.1999 8.4 2.1999C9.19565 2.1999 9.95871 2.51597 10.5213 3.07858C11.0839 3.64119 11.4 4.40425 11.4 5.1999C11.4 5.99555 11.0839 6.75861 10.5213 7.32122C9.95871 7.88383 9.19565 8.1999 8.4 8.1999C7.60435 8.1999 6.84129 7.88383 6.27868 7.32122C5.71607 6.75861 5.4 5.99555 5.4 5.1999ZM13.2 5.1999C13.2 3.92686 12.6943 2.70596 11.7941 1.80579C10.8939 0.905615 9.67304 0.399902 8.4 0.399902C7.12696 0.399902 5.90606 0.905615 5.00589 1.80579C4.10571 2.70596 3.6 3.92686 3.6 5.1999C3.6 6.47294 4.10571 7.69384 5.00589 8.59402C5.90606 9.49419 7.12696 9.9999 8.4 9.9999C9.67304 9.9999 10.8939 9.49419 11.7941 8.59402C12.6943 7.69384 13.2 6.47294 13.2 5.1999ZM10.1138 13.5999C12.5775 13.5999 14.6175 15.4262 14.9513 17.7999H1.84875C2.1825 15.4262 4.2225 13.5999 6.68625 13.5999H10.1138ZM6.68625 11.7999C2.9925 11.7999 0 14.7924 0 18.4862C0 19.1012 0.49875 19.5999 1.11375 19.5999H15.6862C16.3013 19.5999 16.8 19.1012 16.8 18.4862C16.8 14.7924 13.8075 11.7999 10.1138 11.7999H8.4H6.68625ZM18.9 12.0999C18.9 12.5987 19.3013 12.9999 19.8 12.9999C20.2987 12.9999 20.7 12.5987 20.7 12.0999V9.6999H23.1C23.5988 9.6999 24 9.29865 24 8.7999C24 8.30115 23.5988 7.8999 23.1 7.8999H20.7V5.4999C20.7 5.00115 20.2987 4.5999 19.8 4.5999C19.3013 4.5999 18.9 5.00115 18.9 5.4999V7.8999H16.5C16.0013 7.8999 15.6 8.30115 15.6 8.7999C15.6 9.29865 16.0013 9.6999 16.5 9.6999H18.9V12.0999Z" fill="#20363D"/>
</g>
<defs>
<clipPath id="clip0_400_3638">
<rect width="24" height="19.2" fill="white" transform="translate(0 0.399902)"/>
</clipPath>
</defs>
</svg>
