<svg width="16" height="16" viewBox="0 0 16 16" fill="none" xmlns="http://www.w3.org/2000/svg">
<g clip-path="url(#clip0_73_5069)">
<path d="M13.6746 8.26123H12.4387C12.5647 8.59524 12.6335 8.9557 12.6335 9.33139V13.8549C12.6335 14.0115 12.6054 14.1619 12.5541 14.3017H14.5974C15.3607 14.3017 15.9816 13.7003 15.9816 12.9612V10.4953C15.9816 9.26344 14.9467 8.26123 13.6746 8.26123Z" fill="#1D1D1E"/>
<path d="M3.34836 9.3309C3.34836 8.95518 3.41718 8.59475 3.54316 8.26074H2.30723C1.03516 8.26074 0.000244141 9.26295 0.000244141 10.4948V12.9608C0.000244141 13.6999 0.621174 14.3012 1.38444 14.3012H3.42773C3.37651 14.1613 3.34836 14.011 3.34836 13.8544V9.3309Z" fill="#1D1D1E"/>
<path d="M9.40372 7.0979H6.57822C5.30615 7.0979 4.27124 8.10011 4.27124 9.33198V13.8555C4.27124 14.1022 4.47781 14.3023 4.73264 14.3023H11.2493C11.5041 14.3023 11.7107 14.1022 11.7107 13.8555V9.33198C11.7107 8.10011 10.6758 7.0979 9.40372 7.0979Z" fill="#1D1D1E"/>
<path d="M7.99074 1.17383C6.46091 1.17383 5.21631 2.3791 5.21631 3.86062C5.21631 4.86552 5.78904 5.74316 6.63486 6.20395C7.03605 6.42249 7.49857 6.54739 7.99074 6.54739C8.48291 6.54739 8.94543 6.42249 9.34662 6.20395C10.1925 5.74316 10.7652 4.86549 10.7652 3.86062C10.7652 2.37913 9.52057 1.17383 7.99074 1.17383Z" fill="#1D1D1E"/>
<path d="M3.11886 3.67749C1.97473 3.67749 1.04395 4.57886 1.04395 5.68684C1.04395 6.79481 1.97473 7.69618 3.11886 7.69618C3.40908 7.69618 3.68545 7.63796 3.9365 7.53332C4.37055 7.35235 4.72844 7.032 4.9499 6.63074C5.10535 6.34911 5.19378 6.02783 5.19378 5.68684C5.19378 4.57889 4.26299 3.67749 3.11886 3.67749Z" fill="#1D1D1E"/>
<path d="M12.8625 3.67749C11.7184 3.67749 10.7876 4.57886 10.7876 5.68684C10.7876 6.02786 10.876 6.34914 11.0315 6.63074C11.2529 7.03203 11.6108 7.35238 12.0449 7.53332C12.2959 7.63796 12.5723 7.69618 12.8625 7.69618C14.0066 7.69618 14.9374 6.79481 14.9374 5.68684C14.9374 4.57886 14.0066 3.67749 12.8625 3.67749Z" fill="#1D1D1E"/>
</g>
<defs>
<clipPath id="clip0_73_5069">
<rect width="15.9813" height="15.4762" fill="white"/>
</clipPath>
</defs>
</svg>
