<svg width="24" height="24" viewBox="0 0 24 24" fill="none" xmlns="http://www.w3.org/2000/svg">
<g clip-path="url(#clip0_57_26196)">
<g clip-path="url(#clip1_57_26196)">
<path d="M17.4141 20.1094C14.0672 20.4375 10.6125 19.725 7.57031 17.9016C7.15781 18.5953 6.81094 19.3219 6.525 20.0719C8.08594 21.1313 9.97031 21.75 12 21.75C14.0016 21.75 15.8672 21.1453 17.4141 20.1094ZM20.2313 17.2266C20.6625 16.5516 21.0094 15.8156 21.2672 15.0375C18.1781 15.3797 14.9625 14.8359 12.0281 13.2984C10.8141 14.0719 9.75937 15.0094 8.87812 16.0594C12.4031 18.1125 16.5469 18.45 20.2359 17.2266H20.2313ZM21.7219 12.7078C21.7406 12.4734 21.7453 12.2391 21.7453 12C21.7453 8.34844 19.7391 5.16563 16.7625 3.49219C18.4312 6.22969 19.3031 9.47812 19.0875 12.8812C19.9688 12.9047 20.85 12.8484 21.7172 12.7031L21.7219 12.7078ZM4.73438 18.5016C5.98125 15.6563 8.0625 13.1484 10.8609 11.3766C10.8 9.97031 10.5281 8.61563 10.0734 7.35C6.57187 8.88281 4.01719 11.7 2.72344 15.0141C3.14531 16.3219 3.83906 17.5031 4.73438 18.5062V18.5016ZM2.29688 11.0063C3.94219 8.57344 6.27187 6.5625 9.15 5.29688C8.74219 4.56094 8.27344 3.87188 7.74844 3.225C4.77656 4.66875 2.64844 7.575 2.30156 11.0063H2.29688ZM9.99844 2.45625C11.8406 4.95938 12.975 8.01562 13.1109 11.325C14.3156 11.9531 15.5766 12.3844 16.8563 12.6328C17.0719 8.69063 15.6 4.99219 13.0359 2.30156C12.6984 2.26406 12.3516 2.24531 12 2.24531C11.3156 2.24531 10.6453 2.31562 9.99844 2.45156V2.45625ZM0 12C0 8.8174 1.26428 5.76516 3.51472 3.51472C5.76516 1.26428 8.8174 0 12 0C15.1826 0 18.2348 1.26428 20.4853 3.51472C22.7357 5.76516 24 8.8174 24 12C24 15.1826 22.7357 18.2348 20.4853 20.4853C18.2348 22.7357 15.1826 24 12 24C8.8174 24 5.76516 22.7357 3.51472 20.4853C1.26428 18.2348 0 15.1826 0 12Z" fill="#20363D"/>
</g>
</g>
<defs>
<clipPath id="clip0_57_26196">
<rect width="24" height="24" fill="white"/>
</clipPath>
<clipPath id="clip1_57_26196">
<rect width="24" height="24" fill="white"/>
</clipPath>
</defs>
</svg>
